<?xml version="1.0" encoding="utf-8"?>
<!-- Generator: Adobe Illustrator 23.1.0, SVG Export Plug-In . SVG Version: 6.00 Build 0)  -->
<svg version="1.1" id="Layer_1" xmlns="http://www.w3.org/2000/svg" xmlns:xlink="http://www.w3.org/1999/xlink" x="0px" y="0px"
	 viewBox="0 0 400 400" style="enable-background:new 0 0 400 400;" xml:space="preserve">
<style type="text/css">
	.st0{display:none;fill:#412551;}
	.st1{display:none;}
	.st2{display:inline;fill:#243656;}
	.st3{display:inline;}
	.st4{fill:#FFFFFF;}
	.st5{display:inline;fill:#62748E;}
	.st6{display:inline;fill:#EEB86F;}
	.st7{display:inline;fill:#FFFFFF;}
	.st8{display:inline;fill:#F1862F;}
	.st9{display:inline;fill:#444445;}
	.st10{display:inline;fill:#919090;}
	.st11{display:inline;fill:#412551;}
	.st12{fill:#EEB86F;}
	.st13{fill:#F1862F;}
	.st14{fill:#919090;}
	.st15{fill:#243656;}
	.st16{fill:#62748E;}
</style>
<path class="st0" d="M200,196.5"/>
<g class="st1">
	<polygon class="st2" points="15.9,189.4 191.7,189.4 103.8,37.1 	"/>
	<g class="st3">
		<path class="st4" d="M135.1,123.2c0-0.3-0.1-0.4-0.4-0.4c-24.2,0-48.3,0-72.5,0c-0.4,0-0.4,0-0.4,0.4c0,11.2,0,22.4,0,33.6
			c0,0.5-0.1,0.4,0.4,0.4c12.1,0,24.2,0,36.2,0c12.1,0,24.2,0,36.3,0c0.3,0,0.4-0.1,0.4-0.4C135.1,145.6,135.1,134.4,135.1,123.2z
			 M131.6,147.6c-2.1,0.2-3.9,1.1-5.1,2.9c-0.8,1.2-1,2.7-0.9,4.1c0,0.2,0,0.3-0.2,0.3c-0.1,0-18.1,0-27,0c-8.9,0-17.9,0-26.9,0
			c-0.3,0-0.4-0.1-0.4-0.4c0.2-2.7-0.8-4.8-3.2-6.2c-1-0.6-2.1-0.8-3.2-0.9c-0.5,0-0.5,0-0.5-0.5c0-4.7,0-9.4,0-14.1
			c0-0.3,0.1-0.4,0.4-0.4c1.6-0.1,3.1-0.5,4.3-1.6c1.4-1.2,2.2-3,2.2-4.8c0-0.3-0.1-0.6,0.1-0.6c0.3,0,0.3,0,0.6,0
			c17.7,0,35.6,0,53.3,0c0.3,0,0.4,0.1,0.4,0.4c-0.1,1.9,0.5,3.5,2,4.8c1.2,1,2.5,1.6,4,1.7c0.3,0,0.4,0.1,0.4,0.4
			c0,4.8,0,9.6,0,14.3C132,147.5,131.9,147.6,131.6,147.6z"/>
		<path class="st4" d="M106.7,140.5c0,2.5-0.7,5.3-2.4,7.9c-1,1.5-2.3,2.6-4,3.2c-2.4,0.8-4.5,0.1-6.3-1.5c-1.5-1.3-2.5-3-3.1-4.9
			c-1.3-4-1.2-8.1,0.6-11.9c0.8-1.7,1.9-3.2,3.5-4.2c2.6-1.6,5.5-1.3,7.8,0.8c1.6,1.5,2.6,3.4,3.2,5.4
			C106.5,136.8,106.7,138.4,106.7,140.5z"/>
	</g>
</g>
<g class="st1">
	<polygon class="st5" points="208.3,195.8 296.2,348.1 384.1,195.8 	"/>
	<g class="st3">
		<path class="st4" d="M297.8,274.8c-1.5,0.4-2.9,0.8-4.4,1.1c-1.9,0.4-3.9,0.6-5.8,0.7c-2.8,0.2-5.6,0.2-8.5,0.2
			c-4.1,0-7.4-1.7-10.1-4.8c0-0.1-0.1-0.1-0.2-0.2c0.5,0,0.8,0.2,1.2,0.3c2.4,0.7,4.9,0.9,7.4,1c2.8,0,5.7,0,8.5-0.3
			c2.6-0.3,5.1-0.6,7.5-1.9c3.2-1.7,5.3-4.3,6.5-7.7c0.6-1.7,0.8-3.5,1-5.3c0.2-2,0.4-4,0.2-5.9c-0.1-0.7-0.2-1.5-0.3-2.2
			c-0.4-1.8-1.1-3.6-2.3-5c-1-1.2-2.4-2.1-3.9-2.8c-0.6-0.3-1.3-0.5-2-0.6c-3-0.8-6.1-0.8-9.2-0.7c-2.1,0.1-4.3,0.3-6.4,0.5
			c-2.6,0.3-5,1.2-7.2,2.6c-0.3,0.2-0.5,0.4-0.8,0.6c-0.2,0.2-1.5,1.2-1.5,1.3c-0.2,0-0.1-0.1-0.1-0.2c0-0.1,3.1-6.3,4.7-9
			c1.8-3.2,3.7-6.4,6-9.3c0.7-0.9,1.5-1.8,2.3-2.6c1.1-1.1,2.5-1.7,4-1.9c2.4-0.4,4.8-0.5,7.2-0.6c2.5-0.1,4.9-0.1,7.4-0.1
			c0.8,0,1.6,0.1,2.4,0.3c0.7,0.2,1.4,0.5,2.1,0.9c0.7,0.4,1.2,1,1.7,1.6c0.2,0.2,0.3,0.4,0.4,0.6c1.2,1.9,1.8,4.1,2.2,6.3
			c0.6,3.7,0.7,7.4,0.6,11.2c0,2.6-0.2,5.2-0.2,7.9c-0.1,3.3-0.1,6.6-0.3,9.9c-0.1,2.5-0.3,5-1.1,7.4c-0.9,2.6-2.6,4.4-5.1,5.4
			C301.3,273.5,298.3,274.6,297.8,274.8z"/>
		<path class="st4" d="M298.7,250.7c0.6,4.2,0.2,8.3-1.2,12.3c-1.3,3.9-4,6.1-8,7.1c-2.2,0.5-4.4,0.7-6.6,0.9
			c-2.6,0.2-5.3,0.3-8,0.1c-2.4-0.2-4.8-0.5-7-1.6c-2.7-1.4-4.1-3.5-4.5-6.5c-0.3-2.4,0-4.7,0.5-7c0.4-1.8,1-3.6,1.8-5.3
			c1.8-3.6,4.7-6,8.6-7.1c2.1-0.6,4.3-0.9,6.5-1c2.5-0.1,4.9-0.1,7.4,0.1c2.2,0.3,4.4,0.7,6.4,1.9
			C296.9,245.9,298.4,248.3,298.7,250.7z"/>
		<path class="st4" d="M301.2,219.3c0-1.7-0.4-3.3-1.4-4.7c-1.8-2.5-4.3-2.2-6-0.6c-1.3,1.1-1.9,2.6-2.4,4.2
			c-0.2,0.6-0.3,1.1-0.4,1.7c-0.1,0.3-0.2,0.4-0.5,0.4c-0.6,0-1.2,0.1-1.8,0.1c-0.2,0-0.3,0-0.2-0.3c1-2.6,2.2-4.9,4.2-6.9
			c2.6-2.4,6.1-1.9,8-0.4c1.3,1,2.1,2.4,2.5,4c0.4,1.4,0.6,2.9,0.6,4.4c0,0.5,0,0.5-0.4,0.3c-0.6-0.4-1.2-0.6-1.8-0.8
			c-0.4-0.1-0.5-0.3-0.5-0.7C301.3,219.8,301.2,219.6,301.2,219.3z"/>
		<path class="st4" d="M329,259.6c0-3.9-0.4-7.7-1-11.6c-0.8-5-2-9.9-3.8-14.7c-0.9-2.3-1.9-4.4-3.3-6.4c-1.2-1.8-2.8-2.9-5-3.1
			c-2.4-0.2-4.8-0.3-7.3-0.1c-0.4,0-0.6-0.1-0.8-0.3c-0.6-0.7-1.4-1.2-2.2-1.5c-0.4-0.1-0.8-0.3-1.4-0.1c0.2,0.2,0.3,0.3,0.4,0.4
			c0.9,0.8,1.8,1.7,2.5,2.8c1.5,2.2,2,4.8,2.4,7.4c0.4,2.9,0.5,5.9,0.5,8.9c0.1,5.3-0.2,10.6-0.3,16c0,3-0.3,6-1,8.9
			c-0.5,2.1-1.3,4.2-2.6,6c-0.1,0.1-0.2,0.3-0.4,0.5c-0.2,0.2-0.3,0.4-0.5,0.6c-0.7,0.8-1.5,1.4-2.4,1.9c-0.6,0.4-1.3,0.7-1.9,0.9
			c-0.1,0-0.4,0.1-0.4,0.3c0.1,0,0.2,0,0.3,0c1.1-0.1,2.3-0.2,3.4-0.4c1.9-0.4,3.5-1.3,4.8-2.8c1.4-1.6,2.2-3.5,2.7-5.5
			c0.1-0.4,0.2-0.5,0.6-0.3c1.1,0.5,2.2,1.1,3.3,1.6c2.4,1,4.7,2,7.3,2.4c1.7,0.3,3-0.3,4-1.6c0.7-0.9,1.1-1.9,1.4-3
			c0.1-0.2,0.1-0.5,0.2-0.7C329,263.8,329,261.8,329,259.6z M324.3,264c-0.1,0.6-0.4,1.2-0.7,1.7c-0.6,0.8-1.4,1-2.5,0.6
			c-0.2-0.1-0.4-0.1-0.6-0.2c-2.8-1.1-5.2-2.9-7.7-4.6c-0.2-0.2-0.2-0.4-0.2-0.6c0.2-3.8,0.2-7.6,0.3-11.4c0.1-3.3,0.1-6.6-0.2-9.9
			c-0.3-3.6-0.7-7.3-1.9-10.7c-0.1-0.4-0.3-0.9-0.5-1.3c0-0.1-0.1-0.3,0.1-0.3c1.5-0.3,3.1-0.7,4.7-0.2c1.2,0.4,2.1,1.3,2.9,2.3
			c1.4,1.8,2.2,3.8,2.9,5.8c1.3,3.9,2.1,7.8,2.7,11.8c0.5,3.3,1,6.6,1.1,9.9C324.9,259.3,324.9,261.7,324.3,264z"/>
	</g>
</g>
<g class="st1">
	<polygon class="st6" points="15.9,195.8 103.8,348.1 191.7,195.8 	"/>
	<polygon class="st7" points="74.3,273.5 74.3,213.4 69.9,213.4 69.9,273.5 69.9,277.9 74.3,277.9 134.5,277.9 134.5,273.5 	"/>
	<polygon class="st7" points="130.6,237.7 128.9,229.9 121.1,231.6 124.3,233.7 107.8,259.7 90.9,238.1 76.7,255.9 79.4,258.1 
		90.8,243.9 108.1,265.9 127.3,235.6 	"/>
</g>
<g class="st1">
	<polygon class="st8" points="208.3,189.4 384.1,190.6 296.2,37.1 	"/>
	<g class="st3">
		<path class="st4" d="M299.2,127.1c1.5-1.8,3.5-2.4,5.6-2.8c1.4-0.3,2.9-0.3,4.3-0.2c1.8,0.1,3.6,0.4,5.4,0.7
			c1.4,0.3,2.8,0.6,4.2,1c0.7,0.2,1.5,0.4,2.2,0.8c0.2,0.1,0.3,0.3,0.4,0.5c2.4,4.2,4.9,8.4,7.4,12.6c2.2,3.7,4.3,7.3,6.5,11
			c0.3,0.6,0.3,1-0.3,1.4c-0.6,0.4-1.3,0.6-2,0.4c-3.6-1-7.3-1.9-11-2.6c-1.8-0.3-3.7-0.6-5.6-0.8c-1.4-0.1-2.8-0.2-4.2-0.3
			c-1.2,0-2.5,0-3.7,0.1c-1.9,0.2-3.8,0.6-5.4,1.8c-0.6,0.4-1.1,0.9-1.3,1.6c0,0.1-0.1,0.2-0.3,0.2c-1.6,0-3.2,0-4.7,0
			c-0.1,0-0.2,0-0.3-0.1c-0.4-1.1-1.2-1.7-2.1-2.2c-1.3-0.7-2.7-0.9-4.1-1.1c-1-0.1-2.1-0.2-3.1-0.2c-1.4,0-2.8,0-4.1,0.2
			c-1.1,0.1-2.1,0.2-3.2,0.4c-2.3,0.3-4.5,0.7-6.8,1.2c-2.6,0.6-5.2,1.2-7.8,1.9c-0.8,0.2-1.5-0.1-2.1-0.7c-0.3-0.3-0.3-0.6,0-1
			c1.2-2.1,2.5-4.2,3.7-6.3c1.9-3.1,3.7-6.3,5.6-9.4c1.4-2.4,2.9-4.8,4.3-7.3c0.1-0.2,0.2-0.4,0.3-0.6c0.2-0.5,0.6-0.7,1.1-0.9
			c2.1-0.7,4.3-1.2,6.5-1.7c1.9-0.4,3.9-0.7,5.9-0.8c1.9-0.1,3.7,0,5.5,0.6c1.2,0.4,2.2,0.9,2.9,2
			C299,126.7,299.1,126.9,299.2,127.1z"/>
		<path class="st4" d="M275.7,127.8c-0.1,0.3-0.3,0.6-0.4,0.8c-3.9,6.6-7.8,13.1-11.7,19.7c-0.9,1.6-1.9,3.1-2.8,4.7
			c-0.3,0.5-0.3,0.9,0.2,1.3c0.7,0.5,1.4,0.6,2.2,0.4c3.3-0.9,6.5-1.7,9.9-2.4c2.8-0.6,5.7-1.1,8.6-1.3c2.7-0.2,5.4-0.3,8.1,0.2
			c1.4,0.3,2.7,0.7,3.7,1.7c0.4,0.4,0.7,0.9,0.8,1.6c0,0.3,0.1,0.3,0.4,0.3c2.8,0,5.6,0,8.4,0c0.1,0,0.2,0,0.3,0
			c0.6,0,0.6,0,0.8-0.6c0.2-0.9,0.8-1.4,1.5-1.9c1.2-0.8,2.5-1.1,3.9-1.3c2.1-0.3,4.3-0.3,6.4-0.1c2.5,0.2,4.9,0.5,7.4,1
			c3.7,0.7,7.3,1.5,10.9,2.5c0.4,0.1,0.8,0.2,1.1,0.3c0.8,0.2,1.5-0.1,2.1-0.6c0.4-0.3,0.4-0.6,0.1-1.1c-1.7-2.9-3.4-5.8-5.2-8.7
			c-3.1-5.3-6.3-10.5-9.4-15.8c-0.1-0.2-0.2-0.4-0.4-0.7c0.4,0.1,0.8,0.4,1.1,0.8c2.5,3.8,5,7.5,7.5,11.3c2.8,4.3,5.6,8.6,8.5,12.9
			c0.4,0.6,0.6,1.3,0.2,2c-0.4,0.7-1,1.1-1.9,1.1c-2.6-0.1-5.3-0.2-7.9-0.3c-2.2-0.1-4.4-0.2-6.7-0.3c-3.7-0.1-7.4-0.3-11-0.4
			c-2.2-0.1-4.4-0.2-6.6-0.3c-0.3,0-0.4,0.1-0.4,0.4c0,0.2,0,0.4-0.1,0.6c-0.1,0.3-0.4,0.4-0.7,0.4c-2.3,0-4.6,0-6.9,0
			c-1.4,0-2.7,0-4.1,0c-0.6,0-0.8-0.2-0.8-0.8c0-0.6,0-0.6-0.6-0.6c-3.9,0.2-7.9,0.3-11.8,0.5c-2.7,0.1-5.4,0.2-8.1,0.3
			c-4,0.2-7.9,0.3-11.9,0.5c-1.3,0.1-2.3-1-2.3-2c0-0.4,0.2-0.8,0.4-1.1c3.6-5.5,7.2-11,10.8-16.4c1.7-2.6,3.4-5.1,5.1-7.7
			C274.8,128.3,275.2,128,275.7,127.8z"/>
	</g>
</g>
<g class="st1">
	<polygon class="st9" points="200,195.8 112.1,348.1 287.9,348.1 	"/>
	<g class="st3">
		<path class="st4" d="M200.4,291.4c-0.4-1.1-1.1-2-1.9-2.7c-1.2-0.9-2.2-0.8-3,0.5c-0.6,0.9-0.9,2-1.2,3.1
			c-0.4,1.6-0.5,3.3-0.5,4.9c0,1-0.1,2-0.4,2.9c-0.2,0.8-0.3,1.5-0.2,2.3c0.1,1.5-0.3,2.8-1.1,4.1c-1.7,2.6-2.5,5.5-2.9,8.5
			c-0.1,0.9-0.2,1.7-0.2,2.6c0,0.2,0,0.4,0.1,0.5c0.2-0.1,0.2-0.3,0.3-0.4c0.4-1.1,0.5-2.3,0.7-3.5c0.3-2.5,1.1-4.9,2.6-7
			c0.9-1.3,1.3-2.8,1.3-4.4c0-0.8,0.1-1.5,0.3-2.2c0.4-1.3,0.4-2.7,0.5-4.1c0.1-1.7,0.2-3.4,0.6-5c0.1-0.5,0.4-1,0.6-1.5
			c0.7-1,1.6-1.1,2.5-0.2c1.1,1.3,1.6,2.7,1.7,4.4c0.1,1.1,0,2.2-0.1,3.2c-0.3,1.7-0.2,3.5-0.1,5.2c0,0.4,0.1,0.8,0.1,1.1
			c0,3.1,0.1,6.3-0.1,9.4c-0.1,1-0.1,1.9-0.2,2.9c-0.1,1.5,0.1,2.9,0.2,4.4c0.3,3-0.2,5.8-1.7,8.4c-0.4,0.6-0.8,1.2-1.4,1.6
			c-0.7,0.5-1.2,1.1-1.6,1.7c-1,1.5-2.1,3-3.3,4.3c-0.5,0.6-1.1,1.1-1.7,1.5c-0.8,0.5-1.5,0.6-2.4-0.1c-2.3-1.8-4.7-3.5-6.8-5.5
			c-0.3-0.3-0.6-0.7-0.9-1c-0.9-1.1-1-2.3-0.4-3.6c0.5-1.2,1.4-2.1,2.2-3.1c1-1.1,1.9-2.3,2.8-3.5c1.5-2,2.3-4.1,2.7-6.6
			c0.9-5.5,1.8-11,3.1-16.5c0.4-2,0.9-3.9,1.9-5.7c0.5-1.1,0.6-2.3,0.8-3.5c0.8-5.8,1.4-11.5,2.1-17.3c0.1-1.1,0.3-2.2,0.4-3.3
			c0.2-1.4,1.4-2,2.6-1.3c1.4,0.8,2.1,2.2,2.2,3.8c0.1,1.6,0.1,3.3,0.1,4.9c0,5.2-0.1,10.4-0.1,15.6
			C200.5,291.2,200.5,291.3,200.4,291.4z"/>
		<path class="st4" d="M212.1,318.3c0.2-0.1,0.1-0.3,0.1-0.5c-0.1-3.9-0.6-7.7-2.7-11.1c-0.8-1.3-1.2-2.7-1.1-4.2
			c0.1-0.9,0-1.8-0.2-2.6c-0.3-1.1-0.2-2.2-0.2-3.3c0-1.8-0.2-3.6-0.7-5.4c-0.2-0.7-0.4-1.4-0.8-2c-0.8-1.2-1.8-1.4-3-0.5
			c-1,0.7-1.7,1.6-2.1,2.8c-0.2-0.1-0.1-0.2-0.1-0.3c0.1-6.7,0.2-13.4,0.5-20c0.1-1.4,0.5-2.7,1.5-3.7c0.4-0.3,0.8-0.6,1.2-0.8
			c1.1-0.4,2,0.2,2.2,1.4c0.2,1.8,0.3,3.7,0.5,5.5c0.3,2.8,0.5,5.7,0.8,8.5c0.2,2.4,0.4,4.8,0.7,7.2c0.1,1.3,0.4,2.6,1,3.8
			c0.8,1.9,1.2,3.9,1.6,5.9c0.9,4.5,1.5,9,2.1,13.4c0.2,1.3,0.4,2.6,0.6,4c0.3,1.9,1.3,3.5,2.4,5c1.1,1.7,2.6,3.2,3.7,4.9
			c0.4,0.5,0.7,1.1,1,1.8c0.5,1.3,0.4,2.4-0.5,3.5c-1,1.2-2.1,2.1-3.3,3c-1.5,1.2-3,2.2-4.6,3.3c-0.7,0.5-1.4,0.5-2.1,0.1
			c-0.9-0.5-1.6-1.3-2.2-2c-1.1-1.3-2-2.8-3-4.2c-0.4-0.6-0.8-1.1-1.4-1.5c-1-0.7-1.6-1.8-2-2.9c-0.6-1.7-1-3.4-1-5.2
			c0-1,0.1-2,0.3-2.9c0.3-1.5,0.2-3.1,0.1-4.6c-0.1-2.9,0-5.8,0.1-8.7c0-2.1,0.3-4.3,0.4-6.4c0-1-0.1-1.9-0.2-2.8
			c-0.2-1.9-0.1-3.7,0.8-5.5c0.3-0.6,0.7-1.1,1.1-1.6c0.8-0.8,1.7-0.7,2.3,0.2c0.5,0.8,0.7,1.8,0.9,2.7c0.2,1.4,0.3,2.8,0.3,4.3
			c0,1.4,0.1,2.9,0.5,4.2c0.1,0.3,0.1,0.7,0.1,1c-0.2,2.2,0.4,4.2,1.6,6.1c1.1,1.7,1.6,3.7,1.8,5.7c0.2,1.2,0.2,2.5,0.6,3.7
			C211.9,317.9,211.9,318.1,212.1,318.3z"/>
	</g>
</g>
<g class="st1">
	<polygon class="st10" points="112.1,37.1 200,189.4 287.9,37.1 	"/>
	<g class="st3">
		<path class="st4" d="M220.3,69.4c-0.1,3.4-1.3,6.4-2.8,9.3c-2.2,4.2-4.1,8.5-5.6,13c-0.8,2.6-1.5,5.3-1.5,8c0,1.1-0.1,2.2-0.5,3.3
			c-0.5,1.3-1.2,1.8-2.5,1.8c-4.6,0.1-9.3,0.2-13.9,0.4c-1.9,0.1-2.9-0.8-3.3-2.9c-0.3-1.8-0.2-3.6-0.5-5.3
			c-0.4-2.7-1.2-5.3-2.1-7.8c-1.4-4.2-3.3-8.2-5.2-12.3c-4.7-9.9-0.8-21.5,9.1-26.5c10.2-5.1,22.4-0.7,27.1,9.7
			c1,2.2,1.5,4.4,1.7,6.8C220.4,67.8,220.4,68.6,220.3,69.4z"/>
		<path class="st4" d="M192,117.9c-1.1,0-1.9-0.7-2-1.7c-0.1-1,0.5-1.8,1.5-2c3.3-0.6,6.5-1.1,9.8-1.7c2.4-0.4,4.8-0.8,7.2-1.2
			c1.1-0.2,2.1,0.4,2.3,1.5c0.2,1.1-0.5,2-1.6,2.2c-1.4,0.2-2.8,0.5-4.2,0.7c-4.2,0.7-8.4,1.4-12.6,2.1
			C192.2,117.9,192.1,117.9,192,117.9z"/>
		<path class="st4" d="M210.8,108c0,0.9-0.6,1.6-1.5,1.8c-3.4,0.6-6.8,1.2-10.3,1.7c-2.3,0.4-4.5,0.8-6.7,1.1
			c-1.1,0.2-2-0.4-2.2-1.5c-0.2-1.1,0.4-2,1.6-2.2c5.3-0.9,10.6-1.8,15.8-2.7c0.4-0.1,0.8-0.1,1.3-0.2
			C209.8,105.9,210.8,106.8,210.8,108z"/>
		<path class="st4" d="M199.4,121.6c-1-0.3-1.5-1-1.5-2c0.1-0.9,0.7-1.5,1.7-1.7c2-0.3,4-0.6,6-1c0.9-0.2,1.8-0.3,2.8-0.4
			c1-0.1,1.9,0.5,2.1,1.4c0.2,1.1-0.3,2-1.4,2.2c-1.3,0.3-2.6,0.4-3.9,0.7c-1.7,0.3-3.4,0.6-5.1,0.8
			C199.9,121.7,199.6,121.7,199.4,121.6z"/>
	</g>
</g>
<g class="st1">
	<path class="st11" d="M200,191.1"/>
	<g class="st3">
		<polygon class="st12" points="15.9,190.4 103.8,342.7 191.7,190.4 		"/>
		<polygon class="st4" points="74.3,268.2 74.3,208 69.9,208 69.9,268.2 69.9,272.5 74.3,272.5 134.5,272.5 134.5,268.2 		"/>
		<polygon class="st4" points="130.6,232.3 128.9,224.5 121.1,226.3 124.3,228.3 107.8,254.3 90.9,232.7 76.7,250.5 79.4,252.7 
			90.8,238.5 108.1,260.5 127.3,230.2 		"/>
	</g>
</g>
<g class="st1">
	<path class="st11" d="M201.1,189.1"/>
	<g class="st3">
		<polygon class="st13" points="209.3,182 385.2,183.1 297.3,29.7 		"/>
		<g>
			<path class="st4" d="M300.2,119.7c1.5-1.8,3.5-2.4,5.6-2.8c1.4-0.3,2.9-0.3,4.3-0.2c1.8,0.1,3.6,0.4,5.4,0.7
				c1.4,0.3,2.8,0.6,4.2,1c0.7,0.2,1.5,0.4,2.2,0.8c0.2,0.1,0.3,0.3,0.4,0.5c2.4,4.2,4.9,8.4,7.4,12.6c2.2,3.7,4.3,7.3,6.5,11
				c0.3,0.6,0.3,1-0.3,1.4c-0.6,0.4-1.3,0.6-2,0.4c-3.6-1-7.3-1.9-11-2.6c-1.8-0.3-3.7-0.6-5.6-0.8c-1.4-0.1-2.8-0.2-4.2-0.3
				c-1.2,0-2.5,0-3.7,0.1c-1.9,0.2-3.8,0.6-5.4,1.8c-0.6,0.4-1.1,0.9-1.3,1.6c0,0.1-0.1,0.2-0.3,0.2c-1.6,0-3.2,0-4.7,0
				c-0.1,0-0.2,0-0.3-0.1c-0.4-1.1-1.2-1.7-2.1-2.2c-1.3-0.7-2.7-0.9-4.1-1.1c-1-0.1-2.1-0.2-3.1-0.2c-1.4,0-2.8,0-4.1,0.2
				c-1.1,0.1-2.1,0.2-3.2,0.4c-2.3,0.3-4.5,0.7-6.8,1.2c-2.6,0.6-5.2,1.2-7.8,1.9c-0.8,0.2-1.5-0.1-2.1-0.7c-0.3-0.3-0.3-0.6,0-1
				c1.2-2.1,2.5-4.2,3.7-6.3c1.9-3.1,3.7-6.3,5.6-9.5c1.4-2.4,2.9-4.8,4.3-7.3c0.1-0.2,0.2-0.4,0.3-0.6c0.2-0.5,0.6-0.7,1.1-0.9
				c2.1-0.7,4.3-1.2,6.5-1.7c1.9-0.4,3.9-0.7,5.9-0.8c1.9-0.1,3.7,0,5.5,0.6c1.2,0.4,2.2,0.9,2.9,2
				C300.1,119.3,300.1,119.4,300.2,119.7z"/>
			<path class="st4" d="M276.7,120.3c-0.1,0.3-0.3,0.6-0.4,0.8c-3.9,6.6-7.8,13.1-11.7,19.7c-0.9,1.6-1.9,3.1-2.8,4.7
				c-0.3,0.5-0.3,0.9,0.2,1.3c0.7,0.5,1.4,0.6,2.2,0.4c3.3-0.9,6.5-1.7,9.9-2.4c2.8-0.6,5.7-1.1,8.6-1.3c2.7-0.2,5.4-0.3,8.1,0.2
				c1.4,0.3,2.7,0.7,3.7,1.7c0.4,0.4,0.7,0.9,0.8,1.6c0,0.3,0.1,0.3,0.4,0.3c2.8,0,5.6,0,8.4,0c0.1,0,0.2,0,0.3,0
				c0.6,0,0.6,0,0.8-0.6c0.2-0.9,0.8-1.4,1.5-1.9c1.2-0.8,2.5-1.1,3.9-1.3c2.1-0.3,4.3-0.3,6.4-0.1c2.5,0.2,4.9,0.5,7.4,1
				c3.7,0.7,7.3,1.5,10.9,2.5c0.4,0.1,0.8,0.2,1.1,0.3c0.8,0.2,1.5-0.1,2.1-0.6c0.4-0.3,0.4-0.6,0.1-1.1c-1.7-2.9-3.4-5.8-5.2-8.7
				c-3.1-5.3-6.3-10.5-9.4-15.8c-0.1-0.2-0.2-0.4-0.4-0.7c0.4,0.1,0.8,0.4,1.1,0.8c2.5,3.8,5,7.5,7.5,11.3c2.8,4.3,5.6,8.6,8.5,12.9
				c0.4,0.6,0.6,1.3,0.2,2c-0.4,0.7-1,1.1-1.9,1.1c-2.6-0.1-5.3-0.2-7.9-0.3c-2.2-0.1-4.4-0.2-6.7-0.3c-3.7-0.1-7.4-0.3-11-0.4
				c-2.2-0.1-4.4-0.2-6.6-0.3c-0.3,0-0.4,0.1-0.4,0.4c0,0.2,0,0.4-0.1,0.6c-0.1,0.3-0.4,0.4-0.7,0.4c-2.3,0-4.6,0-6.9,0
				c-1.4,0-2.7,0-4.1,0c-0.6,0-0.8-0.2-0.8-0.8c0-0.6,0-0.6-0.6-0.6c-3.9,0.2-7.9,0.3-11.8,0.5c-2.7,0.1-5.4,0.2-8.1,0.3
				c-4,0.2-7.9,0.3-11.9,0.5c-1.3,0.1-2.3-1-2.3-2c0-0.4,0.2-0.8,0.4-1.1c3.6-5.5,7.2-11,10.8-16.4c1.7-2.6,3.4-5.2,5.1-7.7
				C275.9,120.8,276.2,120.5,276.7,120.3z"/>
		</g>
	</g>
</g>
<g class="st1">
	<path class="st11" d="M201.1,184.2"/>
	<g class="st3">
		<polygon class="st14" points="113.1,24.8 201.1,177.1 289,24.8 		"/>
		<g>
			<path class="st4" d="M221.4,57.1c-0.1,3.4-1.3,6.4-2.8,9.3c-2.2,4.2-4.1,8.5-5.6,13c-0.8,2.6-1.5,5.3-1.5,8
				c0,1.1-0.1,2.2-0.5,3.3c-0.5,1.3-1.2,1.8-2.5,1.8c-4.6,0.1-9.3,0.2-13.9,0.4c-1.9,0.1-2.9-0.8-3.3-2.9c-0.3-1.8-0.2-3.6-0.5-5.3
				c-0.4-2.7-1.2-5.3-2.1-7.8c-1.4-4.2-3.3-8.2-5.2-12.3c-4.7-9.9-0.8-21.5,9.1-26.5c10.2-5.1,22.4-0.7,27.1,9.7
				c1,2.2,1.5,4.4,1.7,6.8C221.4,55.5,221.4,56.3,221.4,57.1z"/>
			<path class="st4" d="M193.1,105.6c-1.1,0-1.9-0.7-2-1.7c-0.1-1,0.5-1.8,1.5-2c3.3-0.6,6.5-1.1,9.8-1.7c2.4-0.4,4.8-0.8,7.2-1.2
				c1.1-0.2,2.1,0.4,2.3,1.5c0.2,1.1-0.5,2-1.6,2.2c-1.4,0.2-2.8,0.5-4.2,0.7c-4.2,0.7-8.4,1.4-12.6,2.1
				C193.3,105.6,193.1,105.6,193.1,105.6z"/>
			<path class="st4" d="M211.9,95.7c0,0.9-0.6,1.6-1.5,1.8c-3.4,0.6-6.8,1.2-10.3,1.7c-2.3,0.4-4.5,0.8-6.7,1.1
				c-1.1,0.2-2-0.4-2.2-1.5c-0.2-1.1,0.4-2,1.6-2.2c5.3-0.9,10.6-1.8,15.8-2.7c0.4-0.1,0.8-0.1,1.3-0.2
				C210.9,93.6,211.9,94.5,211.9,95.7z"/>
			<path class="st4" d="M200.4,109.3c-1-0.3-1.5-1-1.5-2c0.1-0.9,0.7-1.5,1.7-1.7c2-0.3,4-0.6,6-1c0.9-0.2,1.8-0.3,2.8-0.4
				c1-0.1,1.9,0.5,2.1,1.4c0.2,1.1-0.3,2-1.4,2.2c-1.3,0.3-2.6,0.4-3.9,0.7c-1.7,0.3-3.4,0.6-5.1,0.8
				C201,109.4,200.7,109.4,200.4,109.3z"/>
		</g>
	</g>
</g>
<g class="st1">
	<path class="st11" d="M200,189.1"/>
	<g class="st3">
		<polygon class="st15" points="15.9,182 191.7,182 103.8,29.7 		"/>
		<g>
			<path class="st4" d="M135.1,115.7c0-0.3-0.1-0.4-0.4-0.4c-24.2,0-48.3,0-72.5,0c-0.4,0-0.4,0-0.4,0.4c0,11.2,0,22.4,0,33.6
				c0,0.5-0.1,0.4,0.4,0.4c12.1,0,24.2,0,36.2,0c12.1,0,24.2,0,36.3,0c0.3,0,0.4-0.1,0.4-0.4C135.1,138.1,135.1,126.9,135.1,115.7z
				 M131.6,140.1c-2.1,0.2-3.9,1.1-5.1,2.9c-0.8,1.2-1,2.7-0.9,4.1c0,0.2,0,0.3-0.2,0.3c-0.1,0-18.1,0-27,0c-8.9,0-17.9,0-26.9,0
				c-0.3,0-0.4-0.1-0.4-0.4c0.2-2.7-0.8-4.8-3.2-6.2c-1-0.6-2.1-0.8-3.2-0.9c-0.5,0-0.5,0-0.5-0.5c0-4.7,0-9.4,0-14.1
				c0-0.3,0.1-0.4,0.4-0.4c1.6-0.1,3.1-0.5,4.3-1.6c1.4-1.2,2.2-3,2.2-4.8c0-0.3-0.1-0.6,0.1-0.6c0.3,0,0.3,0,0.6,0
				c17.7,0,35.6,0,53.3,0c0.3,0,0.4,0.1,0.4,0.4c-0.1,1.9,0.5,3.5,2,4.8c1.2,1,2.5,1.6,4,1.7c0.3,0,0.4,0.1,0.4,0.4
				c0,4.8,0,9.6,0,14.3C132,140,131.9,140.1,131.6,140.1z"/>
			<path class="st4" d="M106.7,133c0,2.5-0.7,5.3-2.4,7.9c-1,1.5-2.3,2.6-4,3.2c-2.4,0.8-4.5,0.1-6.3-1.5c-1.5-1.3-2.5-3-3.1-4.9
				c-1.3-4-1.2-8.1,0.6-11.9c0.8-1.7,1.9-3.2,3.5-4.2c2.6-1.6,5.5-1.3,7.8,0.8c1.6,1.5,2.6,3.4,3.2,5.4
				C106.5,129.3,106.7,130.9,106.7,133z"/>
		</g>
	</g>
</g>
<g class="st1">
	<path class="st11" d="M201.5,191.1"/>
	<g class="st3">
		<polygon class="st16" points="209.8,190.4 297.7,342.7 385.6,190.4 		"/>
		<g>
			<path class="st4" d="M299.3,269.4c-1.5,0.4-2.9,0.8-4.4,1.1c-1.9,0.4-3.9,0.6-5.8,0.7c-2.8,0.2-5.6,0.2-8.5,0.2
				c-4.1,0-7.4-1.7-10.1-4.8c0-0.1-0.1-0.1-0.2-0.2c0.5,0,0.8,0.2,1.2,0.3c2.4,0.7,4.9,0.9,7.4,1c2.8,0,5.7,0,8.5-0.3
				c2.6-0.3,5.1-0.6,7.5-1.9c3.2-1.7,5.3-4.3,6.5-7.7c0.6-1.7,0.8-3.5,1-5.3c0.2-2,0.4-4,0.2-5.9c-0.1-0.7-0.2-1.5-0.3-2.2
				c-0.4-1.8-1.1-3.6-2.3-5c-1-1.2-2.4-2.1-3.9-2.8c-0.6-0.3-1.3-0.5-2-0.6c-3-0.8-6.1-0.8-9.2-0.7c-2.1,0.1-4.3,0.3-6.4,0.5
				c-2.6,0.3-5,1.2-7.2,2.6c-0.3,0.2-0.5,0.4-0.8,0.6c-0.2,0.2-1.5,1.2-1.5,1.3c-0.2,0-0.1-0.1-0.1-0.2c0-0.1,3.1-6.3,4.7-9
				c1.8-3.2,3.7-6.4,6-9.3c0.7-0.9,1.5-1.8,2.3-2.6c1.1-1.1,2.5-1.7,4-1.9c2.4-0.4,4.8-0.5,7.2-0.6c2.5-0.1,4.9-0.1,7.4-0.1
				c0.8,0,1.6,0.1,2.4,0.3c0.7,0.2,1.4,0.5,2.1,0.9c0.7,0.4,1.2,1,1.7,1.6c0.2,0.2,0.3,0.4,0.4,0.6c1.2,1.9,1.8,4.1,2.2,6.3
				c0.6,3.7,0.7,7.4,0.6,11.2c0,2.6-0.2,5.2-0.2,7.9c-0.1,3.3-0.1,6.6-0.3,9.9c-0.1,2.5-0.3,5-1.1,7.4c-0.9,2.6-2.6,4.4-5.1,5.4
				C302.7,268.1,299.8,269.3,299.3,269.4z"/>
			<path class="st4" d="M300.2,245.3c0.6,4.2,0.2,8.3-1.2,12.3c-1.3,3.9-4,6.1-8,7.1c-2.2,0.5-4.4,0.7-6.6,0.9
				c-2.6,0.2-5.3,0.3-8,0.1c-2.4-0.2-4.8-0.5-7-1.6c-2.7-1.4-4.1-3.5-4.5-6.5c-0.3-2.4,0-4.7,0.5-7c0.4-1.8,1-3.6,1.8-5.3
				c1.8-3.6,4.7-6,8.6-7.1c2.1-0.6,4.3-0.9,6.5-1c2.5-0.1,4.9-0.1,7.4,0.1c2.2,0.3,4.4,0.7,6.4,1.9
				C298.4,240.5,299.9,242.9,300.2,245.3z"/>
			<path class="st4" d="M302.7,214c0-1.7-0.4-3.3-1.4-4.7c-1.8-2.5-4.3-2.2-6-0.6c-1.3,1.1-1.9,2.6-2.4,4.2
				c-0.2,0.6-0.3,1.1-0.4,1.7c-0.1,0.3-0.2,0.4-0.5,0.4c-0.6,0-1.2,0.1-1.8,0.1c-0.2,0-0.3,0-0.2-0.3c1-2.6,2.2-4.9,4.2-6.9
				c2.6-2.4,6.1-1.9,8-0.4c1.3,1,2.1,2.4,2.5,4c0.4,1.4,0.6,2.9,0.6,4.4c0,0.5,0,0.5-0.4,0.3c-0.6-0.4-1.2-0.6-1.8-0.8
				c-0.4-0.1-0.5-0.3-0.5-0.7C302.8,214.4,302.7,214.2,302.7,214z"/>
			<path class="st4" d="M330.5,254.3c0-3.9-0.4-7.7-1-11.6c-0.8-5-2-9.9-3.8-14.7c-0.9-2.3-1.9-4.4-3.3-6.4c-1.2-1.8-2.8-2.9-5-3.1
				c-2.4-0.2-4.8-0.3-7.3-0.1c-0.4,0-0.6-0.1-0.8-0.3c-0.6-0.7-1.4-1.2-2.2-1.5c-0.4-0.1-0.8-0.3-1.4-0.1c0.2,0.2,0.3,0.3,0.4,0.4
				c0.9,0.8,1.8,1.7,2.5,2.8c1.5,2.2,2,4.8,2.4,7.4c0.4,2.9,0.5,5.9,0.5,8.9c0.1,5.3-0.2,10.6-0.3,16c0,3-0.3,6-1,8.9
				c-0.5,2.1-1.3,4.2-2.6,6c-0.1,0.1-0.2,0.3-0.4,0.5c-0.2,0.2-0.3,0.4-0.5,0.6c-0.7,0.8-1.5,1.4-2.4,1.9c-0.6,0.4-1.3,0.7-1.9,0.9
				c-0.1,0-0.4,0.1-0.4,0.3c0.1,0,0.2,0,0.3,0c1.1-0.1,2.3-0.2,3.4-0.4c1.9-0.4,3.5-1.3,4.8-2.8c1.4-1.6,2.2-3.5,2.7-5.5
				c0.1-0.4,0.2-0.5,0.6-0.3c1.1,0.5,2.2,1.1,3.3,1.6c2.4,1,4.7,2,7.3,2.4c1.7,0.3,3-0.3,4-1.6c0.7-0.9,1.1-1.9,1.4-3
				c0.1-0.2,0.1-0.5,0.2-0.7C330.4,258.5,330.5,256.4,330.5,254.3z M325.8,258.6c-0.1,0.6-0.4,1.2-0.7,1.7c-0.6,0.8-1.4,1-2.5,0.6
				c-0.2-0.1-0.4-0.1-0.6-0.2c-2.8-1.1-5.2-2.9-7.7-4.6c-0.2-0.2-0.2-0.4-0.2-0.6c0.2-3.8,0.2-7.6,0.3-11.4c0.1-3.3,0.1-6.6-0.2-9.9
				c-0.3-3.6-0.7-7.3-1.9-10.7c-0.1-0.4-0.3-0.9-0.5-1.3c0-0.1-0.1-0.3,0.1-0.3c1.5-0.3,3.1-0.7,4.7-0.2c1.2,0.4,2.1,1.3,2.9,2.3
				c1.4,1.8,2.2,3.8,2.9,5.8c1.3,3.9,2.1,7.8,2.7,11.8c0.5,3.3,1,6.6,1.1,9.9C326.3,253.9,326.4,256.3,325.8,258.6z"/>
		</g>
	</g>
</g>
<circle class="st4" cx="201.5" cy="187" r="66.4"/>
</svg>
