<?xml version="1.0" encoding="utf-8"?>
<!-- Generator: Adobe Illustrator 23.0.4, SVG Export Plug-In . SVG Version: 6.00 Build 0)  -->
<svg version="1.1" id="Layer_1" xmlns="http://www.w3.org/2000/svg" xmlns:xlink="http://www.w3.org/1999/xlink" x="0px" y="0px"
	 viewBox="0 0 400 400" style="enable-background:new 0 0 400 400;" xml:space="preserve">
<style type="text/css">
	.st0{fill:#412551;}
	.st1{display:none;}
	.st2{display:inline;fill:#243656;}
	.st3{display:inline;}
	.st4{fill:#FFFFFF;}
	.st5{fill:#62748E;}
	.st6{display:inline;fill:#EEB86F;}
	.st7{display:inline;fill:#FFFFFF;}
	.st8{display:none;fill:#FFFFFF;}
	.st9{display:inline;fill:#F1862F;}
	.st10{display:inline;fill:#444445;}
	.st11{display:inline;fill:#919090;}
</style>
<path class="st0" d="M200,196.52"/>
<g class="st1">
	<polygon class="st2" points="15.86,189.42 191.72,189.42 103.79,37.12 	"/>
	<g class="st3">
		<path class="st4" d="M135.1,123.2c0-0.34-0.08-0.44-0.43-0.44c-24.17,0.01-48.34,0.01-72.51,0.01c-0.42,0-0.42,0-0.42,0.44
			c0,11.19,0,22.39,0,33.58c0,0.49-0.06,0.43,0.43,0.43c12.08,0,24.16,0,36.24,0c12.09,0,24.18,0,36.27,0.01
			c0.32,0,0.43-0.05,0.43-0.41C135.09,145.61,135.09,134.4,135.1,123.2z M131.59,147.61c-2.12,0.24-3.87,1.14-5.08,2.94
			c-0.81,1.22-1.02,2.71-0.9,4.15c0.02,0.2,0,0.34-0.22,0.31c-0.08-0.01-18.09,0-27.02,0c-8.95,0-17.9,0-26.86,0.01
			c-0.33,0-0.4-0.07-0.38-0.41c0.21-2.72-0.8-4.83-3.22-6.18c-1.01-0.56-2.11-0.8-3.24-0.89c-0.48-0.04-0.48-0.04-0.48-0.5
			c0-4.7,0-9.39-0.01-14.08c0-0.32,0.09-0.42,0.4-0.44c1.59-0.11,3.08-0.54,4.34-1.57c1.44-1.17,2.19-2.97,2.23-4.84
			c0-0.29-0.11-0.62,0.13-0.62c0.27,0,0.34,0,0.64,0c17.7,0,35.55,0,53.25,0c0.34,0,0.43,0.07,0.42,0.42
			c-0.09,1.91,0.52,3.54,1.96,4.83c1.15,1.03,2.51,1.57,4.03,1.72c0.3,0.03,0.38,0.11,0.38,0.42c-0.01,4.77-0.01,9.55,0,14.32
			C131.98,147.5,131.88,147.58,131.59,147.61z"/>
		<path class="st4" d="M106.7,140.49c-0.04,2.48-0.69,5.33-2.42,7.87c-1,1.47-2.27,2.64-3.98,3.21c-2.39,0.78-4.48,0.14-6.31-1.48
			c-1.5-1.33-2.47-3.01-3.07-4.89c-1.3-4.04-1.18-8.05,0.57-11.94c0.77-1.72,1.89-3.21,3.5-4.24c2.58-1.64,5.54-1.32,7.84,0.81
			c1.62,1.5,2.6,3.37,3.22,5.45C106.5,136.8,106.7,138.35,106.7,140.49z"/>
	</g>
</g>
<g>
	<polygon class="st5" points="208.28,195.78 296.21,348.08 384.14,195.78 	"/>
	<g>
		<path class="st4" d="M297.81,274.75c-1.45,0.39-2.9,0.79-4.38,1.07c-1.93,0.36-3.87,0.59-5.83,0.72
			c-2.81,0.18-5.63,0.23-8.45,0.24c-4.1,0-7.42-1.68-10.06-4.77c-0.05-0.06-0.08-0.12-0.16-0.23c0.47,0,0.82,0.21,1.19,0.31
			c2.41,0.66,4.88,0.94,7.37,0.99c2.83,0.05,5.67,0,8.49-0.3c2.57-0.27,5.13-0.63,7.45-1.85c3.19-1.67,5.3-4.3,6.48-7.68
			c0.59-1.71,0.81-3.49,1-5.27c0.22-1.98,0.38-3.96,0.2-5.95c-0.07-0.73-0.16-1.47-0.31-2.19c-0.38-1.83-1.12-3.59-2.34-5.02
			c-1.05-1.23-2.41-2.15-3.9-2.77c-0.64-0.27-1.3-0.48-1.97-0.65c-3.04-0.78-6.13-0.83-9.24-0.67c-2.14,0.1-4.27,0.25-6.4,0.49
			c-2.6,0.29-4.99,1.17-7.17,2.62c-0.25,0.21-0.54,0.36-0.8,0.55c-0.24,0.18-1.52,1.23-1.55,1.26c-0.16,0-0.15-0.09-0.1-0.19
			c0.01-0.08,3.15-6.26,4.71-9.01c1.82-3.21,3.73-6.37,5.97-9.31c0.7-0.92,1.47-1.79,2.29-2.61c1.12-1.13,2.5-1.68,4.04-1.93
			c2.37-0.38,4.76-0.51,7.16-0.56c2.46-0.06,4.91-0.07,7.37-0.09c0.79,0,1.58,0.08,2.35,0.29c0.73,0.2,1.43,0.52,2.06,0.94
			c0.67,0.45,1.22,1,1.74,1.61c0.16,0.19,0.29,0.38,0.42,0.58c1.22,1.91,1.84,4.05,2.22,6.26c0.64,3.7,0.68,7.43,0.63,11.18
			c-0.03,2.62-0.16,5.24-0.23,7.86c-0.09,3.3-0.15,6.6-0.28,9.9c-0.1,2.51-0.31,5.02-1.14,7.43c-0.9,2.59-2.58,4.41-5.15,5.4
			C301.25,273.48,298.28,274.64,297.81,274.75z"/>
		<path class="st4" d="M298.73,250.71c0.59,4.21,0.18,8.33-1.16,12.35c-1.29,3.86-4.04,6.12-7.95,7.07
			c-2.18,0.53-4.39,0.74-6.62,0.89c-2.65,0.19-5.3,0.3-7.95,0.12c-2.42-0.16-4.79-0.52-6.99-1.63c-2.67-1.35-4.12-3.55-4.52-6.49
			c-0.32-2.39,0.05-4.72,0.54-7.04c0.39-1.83,0.96-3.6,1.8-5.29c1.81-3.65,4.72-5.97,8.62-7.09c2.14-0.62,4.33-0.91,6.55-1
			c2.45-0.1,4.91-0.15,7.36,0.14c2.24,0.26,4.43,0.71,6.4,1.9C296.87,245.9,298.4,248.31,298.73,250.71z"/>
		<path class="st4" d="M301.24,219.34c0.01-1.72-0.42-3.3-1.4-4.73c-1.76-2.54-4.29-2.17-6.03-0.64c-1.26,1.11-1.91,2.61-2.39,4.18
			c-0.17,0.55-0.29,1.11-0.41,1.67c-0.06,0.27-0.18,0.37-0.45,0.38c-0.6,0.02-1.2,0.08-1.8,0.13c-0.24,0.02-0.34-0.03-0.24-0.3
			c0.96-2.56,2.18-4.95,4.22-6.85c2.61-2.42,6.15-1.91,8.02-0.45c1.32,1.04,2.07,2.45,2.55,4.01c0.44,1.42,0.62,2.88,0.64,4.36
			c0.01,0.51-0.03,0.54-0.44,0.29c-0.57-0.35-1.17-0.63-1.82-0.77c-0.37-0.08-0.52-0.28-0.45-0.67
			C301.28,219.77,301.24,219.55,301.24,219.34z"/>
		<path class="st4" d="M329.01,259.65c-0.04-3.88-0.43-7.73-1-11.57c-0.75-5.03-2.03-9.94-3.84-14.7c-0.86-2.26-1.86-4.44-3.26-6.43
			c-1.23-1.75-2.78-2.88-5.01-3.07c-2.42-0.2-4.84-0.28-7.27-0.14c-0.35,0.02-0.59-0.06-0.83-0.32c-0.62-0.67-1.35-1.2-2.23-1.49
			c-0.41-0.14-0.83-0.27-1.36-0.15c0.17,0.16,0.28,0.26,0.39,0.36c0.91,0.84,1.76,1.73,2.45,2.77c1.47,2.24,2.02,4.78,2.37,7.38
			c0.4,2.95,0.48,5.92,0.52,8.89c0.08,5.32-0.2,10.64-0.25,15.96c-0.03,3-0.27,5.99-0.99,8.92c-0.53,2.15-1.29,4.2-2.61,6.01
			c-0.15,0.13-0.23,0.32-0.36,0.46c-0.16,0.18-0.3,0.38-0.46,0.57c-0.67,0.76-1.49,1.41-2.36,1.93c-0.61,0.37-1.25,0.67-1.92,0.91
			c-0.12,0.04-0.42,0.13-0.42,0.29c0.09,0,0.18,0,0.27,0c1.13-0.12,2.26-0.16,3.37-0.44c1.89-0.42,3.51-1.32,4.8-2.76
			c1.41-1.57,2.18-3.45,2.67-5.46c0.11-0.43,0.23-0.45,0.6-0.27c1.1,0.55,2.21,1.09,3.34,1.58c2.35,1.02,4.71,1.98,7.26,2.38
			c1.67,0.26,2.99-0.29,4.03-1.58c0.72-0.9,1.13-1.94,1.44-3.04c0.08-0.24,0.06-0.5,0.18-0.73
			C328.95,263.84,329.03,261.75,329.01,259.65z M324.33,264.02c-0.15,0.6-0.36,1.18-0.74,1.68c-0.6,0.79-1.39,0.97-2.52,0.57
			c-0.2-0.1-0.43-0.11-0.63-0.19c-2.8-1.15-5.22-2.91-7.66-4.65c-0.22-0.16-0.23-0.36-0.22-0.59c0.21-3.79,0.17-7.59,0.29-11.39
			c0.11-3.3,0.07-6.6-0.19-9.89c-0.28-3.64-0.74-7.25-1.89-10.74c-0.14-0.43-0.31-0.85-0.46-1.27c-0.05-0.13-0.1-0.28,0.1-0.32
			c1.55-0.32,3.12-0.69,4.68-0.2c1.23,0.38,2.12,1.3,2.89,2.3c1.35,1.75,2.2,3.76,2.9,5.84c1.3,3.85,2.07,7.83,2.72,11.83
			c0.53,3.29,0.96,6.59,1.13,9.92C324.85,259.29,324.91,261.67,324.33,264.02z"/>
	</g>
</g>
<g class="st1">
	<polygon class="st6" points="15.86,195.78 103.79,348.08 191.72,195.78 	"/>
	<polygon class="st7" points="74.31,273.55 74.31,213.38 69.95,213.38 69.95,273.55 69.95,277.9 74.31,277.9 134.48,277.9 
		134.48,273.55 	"/>
</g>
<polygon class="st8" points="130.6,237.7 128.87,229.91 121.08,231.65 124.33,233.72 107.82,259.68 90.88,238.13 76.66,255.88 
	79.45,258.12 90.85,243.88 108.13,265.85 127.35,235.63 "/>
<g class="st1">
	<polygon class="st9" points="208.28,189.42 384.14,190.6 296.21,37.12 	"/>
	<g class="st3">
		<path class="st4" d="M299.19,127.13c1.45-1.82,3.47-2.45,5.62-2.82c1.43-0.25,2.87-0.26,4.31-0.18c1.8,0.1,3.59,0.38,5.36,0.74
			c1.41,0.29,2.81,0.64,4.18,1.04c0.73,0.21,1.5,0.38,2.16,0.82c0.2,0.14,0.31,0.31,0.42,0.5c2.41,4.23,4.94,8.39,7.41,12.58
			c2.16,3.67,4.34,7.34,6.51,11.01c0.33,0.56,0.25,1.02-0.28,1.38c-0.6,0.41-1.25,0.58-1.99,0.37c-3.64-1-7.32-1.87-11.04-2.56
			c-1.84-0.34-3.7-0.61-5.56-0.82c-1.38-0.15-2.77-0.23-4.16-0.25c-1.23-0.02-2.46-0.02-3.68,0.12c-1.91,0.23-3.8,0.57-5.41,1.75
			c-0.58,0.42-1.06,0.93-1.27,1.63c-0.05,0.15-0.13,0.16-0.25,0.16c-1.58,0-3.16,0-4.74,0c-0.11,0-0.21,0.01-0.26-0.14
			c-0.36-1.07-1.2-1.7-2.14-2.19c-1.3-0.67-2.7-0.95-4.13-1.15c-1.04-0.15-2.08-0.2-3.13-0.19c-1.37,0.01-2.75,0.03-4.13,0.18
			c-1.06,0.11-2.12,0.22-3.18,0.37c-2.28,0.31-4.55,0.74-6.8,1.22c-2.63,0.56-5.23,1.24-7.84,1.91c-0.8,0.21-1.5-0.09-2.07-0.68
			c-0.25-0.27-0.26-0.65-0.05-1c1.24-2.1,2.48-4.2,3.72-6.3c1.86-3.15,3.73-6.3,5.59-9.45c1.43-2.42,2.86-4.84,4.29-7.26
			c0.12-0.2,0.24-0.41,0.33-0.62c0.21-0.48,0.6-0.74,1.07-0.9c2.12-0.71,4.29-1.23,6.49-1.66c1.94-0.38,3.9-0.66,5.88-0.76
			c1.89-0.1,3.74,0,5.55,0.55c1.18,0.36,2.24,0.91,2.93,2C299.01,126.72,299.08,126.91,299.19,127.13z"/>
		<path class="st4" d="M275.69,127.76c-0.11,0.35-0.25,0.6-0.39,0.84c-3.89,6.56-7.79,13.11-11.68,19.67
			c-0.93,1.57-1.87,3.14-2.8,4.71c-0.32,0.54-0.27,0.9,0.24,1.28c0.66,0.49,1.36,0.64,2.19,0.41c3.25-0.91,6.54-1.69,9.85-2.35
			c2.84-0.57,5.7-1.05,8.59-1.3c2.7-0.23,5.4-0.33,8.07,0.2c1.38,0.28,2.7,0.69,3.74,1.73c0.43,0.43,0.74,0.94,0.78,1.56
			c0.02,0.29,0.14,0.32,0.39,0.32c2.8-0.01,5.61-0.01,8.41-0.01c0.09,0,0.17,0,0.26,0c0.62,0,0.61,0,0.77-0.61
			c0.22-0.85,0.79-1.43,1.51-1.89c1.18-0.76,2.51-1.07,3.88-1.26c2.14-0.3,4.28-0.25,6.42-0.1c2.47,0.18,4.92,0.54,7.36,0.98
			c3.68,0.66,7.31,1.52,10.92,2.48c0.38,0.1,0.76,0.21,1.14,0.3c0.81,0.21,1.48-0.07,2.07-0.59c0.38-0.34,0.4-0.65,0.14-1.09
			c-1.72-2.9-3.44-5.79-5.16-8.69c-3.13-5.27-6.26-10.54-9.4-15.81c-0.12-0.21-0.22-0.43-0.35-0.68c0.44,0.11,0.79,0.38,1.09,0.85
			c2.48,3.77,4.97,7.54,7.45,11.32c2.82,4.29,5.64,8.58,8.47,12.86c0.43,0.65,0.56,1.33,0.16,2.02c-0.42,0.72-1.04,1.14-1.91,1.11
			c-2.64-0.12-5.28-0.23-7.92-0.34c-2.22-0.09-4.44-0.17-6.66-0.26c-3.67-0.15-7.35-0.3-11.02-0.45c-2.19-0.09-4.39-0.18-6.58-0.28
			c-0.32-0.02-0.42,0.07-0.39,0.38c0.02,0.2,0.04,0.42-0.06,0.62c-0.15,0.28-0.38,0.35-0.68,0.35c-2.28-0.01-4.57,0-6.85,0
			c-1.36,0-2.72,0-4.07,0c-0.6,0-0.78-0.18-0.78-0.77c0-0.58,0-0.59-0.6-0.56c-3.94,0.16-7.89,0.33-11.84,0.5
			c-2.69,0.11-5.38,0.22-8.06,0.33c-3.97,0.16-7.94,0.31-11.91,0.51c-1.26,0.07-2.29-1.03-2.25-2c0.02-0.42,0.16-0.79,0.39-1.14
			c3.61-5.48,7.22-10.97,10.83-16.45c1.7-2.58,3.39-5.15,5.09-7.73C274.81,128.28,275.17,127.99,275.69,127.76z"/>
	</g>
</g>
<g class="st1">
	<polygon class="st10" points="200,195.78 112.07,348.08 287.93,348.08 	"/>
	<g class="st3">
		<path class="st4" d="M200.39,291.4c-0.38-1.09-1.07-1.95-1.95-2.66c-1.17-0.93-2.21-0.78-3.04,0.47
			c-0.62,0.93-0.94,1.99-1.18,3.07c-0.36,1.62-0.5,3.27-0.51,4.93c-0.01,0.99-0.1,1.96-0.35,2.92c-0.2,0.76-0.25,1.54-0.21,2.33
			c0.08,1.48-0.31,2.83-1.11,4.06c-1.69,2.59-2.51,5.46-2.85,8.5c-0.1,0.86-0.2,1.71-0.23,2.57c0,0.17-0.04,0.35,0.09,0.53
			c0.17-0.1,0.2-0.27,0.25-0.42c0.41-1.14,0.54-2.33,0.69-3.52c0.33-2.52,1.13-4.87,2.57-6.98c0.9-1.34,1.3-2.83,1.26-4.44
			c-0.02-0.75,0.08-1.48,0.29-2.19c0.39-1.34,0.45-2.73,0.5-4.12c0.06-1.69,0.2-3.36,0.65-5c0.15-0.54,0.35-1.05,0.64-1.52
			c0.66-1.05,1.64-1.12,2.46-0.19c1.09,1.25,1.59,2.73,1.73,4.35c0.09,1.08,0.04,2.16-0.14,3.22c-0.29,1.74-0.19,3.49-0.07,5.24
			c0.03,0.38,0.05,0.75,0.05,1.13c-0.02,3.13,0.07,6.25-0.08,9.38c-0.05,0.95-0.07,1.91-0.17,2.86c-0.15,1.47,0.05,2.9,0.22,4.35
			c0.34,2.96-0.2,5.76-1.67,8.36c-0.35,0.63-0.8,1.2-1.4,1.6c-0.68,0.45-1.16,1.07-1.62,1.72c-1.04,1.47-2.05,2.97-3.27,4.31
			c-0.51,0.56-1.05,1.09-1.7,1.48c-0.78,0.48-1.53,0.59-2.39-0.06c-2.33-1.76-4.71-3.47-6.8-5.53c-0.33-0.32-0.64-0.66-0.91-1.02
			c-0.86-1.13-0.97-2.33-0.37-3.61c0.54-1.16,1.37-2.12,2.19-3.09c0.96-1.15,1.93-2.28,2.83-3.47c1.49-1.96,2.34-4.15,2.74-6.59
			c0.91-5.51,1.8-11.03,3.05-16.48c0.45-1.95,0.94-3.9,1.85-5.71c0.54-1.08,0.64-2.28,0.8-3.45c0.77-5.75,1.41-11.52,2.08-17.29
			c0.13-1.11,0.26-2.22,0.4-3.33c0.18-1.41,1.36-1.98,2.62-1.25c1.44,0.83,2.13,2.16,2.22,3.77c0.09,1.63,0.07,3.26,0.08,4.89
			c0.04,5.19-0.06,10.38-0.14,15.56C200.47,291.2,200.52,291.3,200.39,291.4z"/>
		<path class="st4" d="M212.15,318.34c0.16-0.14,0.12-0.31,0.12-0.46c-0.08-3.91-0.62-7.71-2.73-11.12
			c-0.79-1.29-1.17-2.68-1.05-4.2c0.08-0.89-0.01-1.78-0.22-2.65c-0.26-1.1-0.2-2.22-0.21-3.34c-0.02-1.82-0.16-3.63-0.66-5.4
			c-0.19-0.69-0.45-1.35-0.84-1.96c-0.79-1.21-1.83-1.4-2.98-0.53c-0.97,0.73-1.71,1.63-2.11,2.79c-0.16-0.07-0.09-0.19-0.09-0.28
			c0.1-6.68,0.23-13.37,0.5-20.05c0.06-1.43,0.47-2.7,1.54-3.7c0.36-0.33,0.76-0.6,1.23-0.75c1.15-0.35,2.04,0.22,2.16,1.41
			c0.18,1.84,0.34,3.68,0.51,5.51c0.26,2.84,0.51,5.69,0.77,8.53c0.22,2.39,0.42,4.78,0.7,7.16c0.15,1.32,0.44,2.58,0.98,3.81
			c0.83,1.88,1.17,3.91,1.55,5.92c0.85,4.46,1.46,8.95,2.11,13.44c0.19,1.32,0.41,2.63,0.62,3.95c0.3,1.9,1.33,3.45,2.37,4.99
			c1.15,1.7,2.55,3.2,3.74,4.87c0.39,0.55,0.73,1.13,0.99,1.75c0.53,1.27,0.35,2.42-0.51,3.48c-0.96,1.18-2.15,2.11-3.34,3.04
			c-1.48,1.17-3.04,2.24-4.57,3.33c-0.71,0.51-1.39,0.51-2.11,0.1c-0.9-0.51-1.57-1.27-2.21-2.05c-1.1-1.33-2.01-2.8-2.98-4.23
			c-0.38-0.56-0.8-1.06-1.35-1.48c-0.97-0.74-1.57-1.76-2.01-2.88c-0.65-1.66-0.98-3.39-1.01-5.17c-0.02-0.98,0.12-1.96,0.31-2.93
			c0.29-1.52,0.22-3.06,0.15-4.59c-0.14-2.91,0.02-5.82,0.05-8.73c0.02-2.15,0.26-4.28,0.35-6.42c0.04-0.95-0.1-1.88-0.19-2.82
			c-0.18-1.88-0.05-3.72,0.79-5.45c0.29-0.6,0.66-1.14,1.13-1.62c0.8-0.81,1.71-0.72,2.33,0.23c0.54,0.83,0.74,1.78,0.9,2.74
			c0.23,1.41,0.32,2.84,0.3,4.27c-0.03,1.44,0.14,2.85,0.49,4.24c0.08,0.33,0.15,0.66,0.12,1c-0.18,2.22,0.44,4.21,1.64,6.08
			c1.1,1.72,1.56,3.68,1.84,5.68c0.17,1.24,0.22,2.49,0.57,3.71C211.91,317.86,211.95,318.13,212.15,318.34z"/>
	</g>
</g>
<g class="st1">
	<polygon class="st11" points="112.07,37.12 200,189.42 287.93,37.12 	"/>
	<g class="st3">
		<path class="st4" d="M220.31,69.38c-0.14,3.36-1.26,6.41-2.83,9.35c-2.22,4.17-4.14,8.49-5.57,13c-0.83,2.61-1.46,5.26-1.54,8.03
			c-0.03,1.09-0.08,2.22-0.47,3.27c-0.47,1.26-1.19,1.77-2.54,1.81c-4.62,0.14-9.25,0.22-13.87,0.43c-1.91,0.09-2.94-0.82-3.25-2.88
			c-0.26-1.77-0.2-3.58-0.5-5.35c-0.45-2.67-1.19-5.27-2.07-7.82c-1.45-4.21-3.32-8.23-5.22-12.26c-4.66-9.87-0.82-21.53,9.06-26.46
			c10.21-5.09,22.36-0.72,27.09,9.65c0.98,2.15,1.51,4.43,1.69,6.79C220.37,67.76,220.37,68.57,220.31,69.38z"/>
		<path class="st4" d="M192.01,117.88c-1.14,0-1.88-0.69-1.97-1.71c-0.09-1,0.53-1.83,1.53-2c3.27-0.56,6.54-1.11,9.81-1.66
			c2.39-0.4,4.78-0.8,7.16-1.22c1.13-0.2,2.06,0.43,2.25,1.54c0.19,1.08-0.47,1.99-1.59,2.18c-1.41,0.24-2.82,0.47-4.23,0.71
			c-4.19,0.7-8.37,1.41-12.56,2.11C192.24,117.87,192.06,117.88,192.01,117.88z"/>
		<path class="st4" d="M210.81,108.02c-0.01,0.89-0.62,1.61-1.53,1.76c-3.42,0.58-6.84,1.16-10.25,1.73
			c-2.25,0.38-4.49,0.75-6.74,1.13c-1.1,0.19-2.03-0.42-2.21-1.46c-0.2-1.14,0.43-2.02,1.59-2.21c5.28-0.89,10.56-1.79,15.83-2.69
			c0.42-0.07,0.83-0.14,1.25-0.21C209.84,105.9,210.82,106.83,210.81,108.02z"/>
		<path class="st4" d="M199.38,121.61c-0.99-0.28-1.53-1.02-1.47-2.02c0.06-0.9,0.69-1.54,1.72-1.7c1.99-0.32,3.98-0.64,5.97-0.96
			c0.92-0.15,1.83-0.32,2.75-0.44c1-0.14,1.88,0.5,2.05,1.45c0.2,1.08-0.31,1.97-1.35,2.2c-1.27,0.27-2.56,0.45-3.85,0.66
			c-1.68,0.28-3.37,0.55-5.06,0.82C199.9,121.66,199.64,121.66,199.38,121.61z"/>
	</g>
</g>
</svg>
