<?xml version="1.0" encoding="utf-8"?>
<!-- Generator: Adobe Illustrator 23.0.4, SVG Export Plug-In . SVG Version: 6.00 Build 0)  -->
<svg version="1.1" id="Layer_1" xmlns="http://www.w3.org/2000/svg" xmlns:xlink="http://www.w3.org/1999/xlink" x="0px" y="0px"
	 viewBox="0 0 360 360" style="enable-background:new 0 0 360 360;" xml:space="preserve">
<style type="text/css">
	.st0{fill:#FFFFFF;}
</style>
<g>
	<path class="st0" d="M265.21,108.82c-0.64,15.3-5.75,29.19-12.89,42.58c-10.12,18.99-18.84,38.64-25.35,59.18
		c-3.77,11.89-6.64,23.96-6.99,36.56c-0.14,4.98-0.35,10.1-2.12,14.9c-2.12,5.72-5.44,8.08-11.55,8.26
		c-21.05,0.62-42.12,1-63.15,1.96c-8.68,0.4-13.4-3.72-14.78-13.13c-1.18-8.08-0.91-16.28-2.28-24.34
		c-2.06-12.17-5.42-23.98-9.44-35.62c-6.61-19.16-15.12-37.49-23.75-55.8c-21.21-44.95-3.75-98.04,41.27-120.48
		C180.66-0.28,236,19.62,257.5,66.84c4.47,9.81,6.89,20.16,7.71,30.9C265.47,101.43,265.47,105.12,265.21,108.82z"/>
	<path class="st0" d="M136.36,329.64c-5.19,0-8.55-3.12-8.99-7.79c-0.43-4.56,2.4-8.33,6.95-9.11c14.89-2.54,29.78-5.04,44.67-7.56
		c10.88-1.84,21.76-3.65,32.62-5.54c5.16-0.9,9.39,1.94,10.26,7.02c0.85,4.93-2.15,9.07-7.25,9.94c-6.42,1.09-12.85,2.14-19.28,3.22
		c-19.06,3.2-38.11,6.41-57.17,9.61C137.38,329.56,136.56,329.62,136.36,329.64z"/>
	<path class="st0" d="M221.96,284.73c-0.03,4.04-2.81,7.32-6.95,8.03c-15.56,2.65-31.12,5.26-46.68,7.88
		c-10.23,1.72-20.46,3.42-30.68,5.16c-5.02,0.85-9.23-1.91-10.08-6.67c-0.92-5.18,1.97-9.19,7.22-10.08
		c24.03-4.07,48.06-8.16,72.09-12.23c1.9-0.32,3.8-0.65,5.7-0.95C217.54,275.08,222.01,279.3,221.96,284.73z"/>
	<path class="st0" d="M169.91,346.61c-4.51-1.26-6.98-4.65-6.68-9.19c0.27-4.11,3.15-6.99,7.83-7.76c9.06-1.47,18.13-2.92,27.2-4.38
		c4.17-0.67,8.32-1.44,12.5-2.01c4.56-0.63,8.55,2.26,9.35,6.6c0.91,4.91-1.4,8.99-6.15,10c-5.79,1.22-11.67,2.05-17.51,3.01
		c-7.67,1.26-15.35,2.49-23.02,3.73C172.25,346.84,171.08,346.85,169.91,346.61z"/>
</g>
</svg>
