<?xml version="1.0" encoding="utf-8"?>
<!-- Generator: Adobe Illustrator 23.0.4, SVG Export Plug-In . SVG Version: 6.00 Build 0)  -->
<svg version="1.1" id="Layer_1" xmlns="http://www.w3.org/2000/svg" xmlns:xlink="http://www.w3.org/1999/xlink" x="0px" y="0px"
	 viewBox="0 0 360 360" style="enable-background:new 0 0 360 360;" xml:space="preserve">
<style type="text/css">
	.st0{display:none;fill:#8B5E3C;}
	.st1{display:none;fill:#E48A44;}
	.st2{display:none;fill:#FFFFFF;}
	.st3{display:none;fill:#949292;}
	.st4{display:none;fill:#627CBD;}
	.st5{display:none;fill:#627DBD;}
	.st6{fill:#FFFEFE;}
	.st7{fill:#FFFFFF;}
</style>
<g>
	<rect x="-8.5" y="50.44" class="st0" width="362.94" height="315.15"/>
	<path class="st1" d="M66.56,104.03c80.07,0,160.14,0,240.21,0c0.43,0.36,0.76,0.8,1.04,1.3c6.87,12.1,13.83,24.14,20.73,36.23
		c7.15,12.53,14.32,25.05,21.5,37.56c6.69,11.67,13.35,23.35,20.08,35c2.66,4.59,5.25,9.22,7.9,13.82c0.31,0.53,0.48,1.11,0.48,1.73
		c0,16.74,0,33.47,0,50.2c0,1.6,0,1.6-1.58,1.6c-120.05,0-240.1,0-360.16,0c-0.46,0-0.94,0.12-1.38-0.13c0-29.55,0-59.1,0-88.65
		c0.77-2.37,2.26-4.36,3.48-6.49c7.28-12.66,14.58-25.31,21.89-37.96c6.03-10.43,12.05-20.87,18.08-31.29
		c2.24-3.86,4.47-7.73,6.68-11.61C65.79,104.83,66.12,104.39,66.56,104.03z"/>
	<path class="st2" d="M15.38,281.32c120.35,0,240.69,0,361.04,0c1.94,0,1.94,0,1.94-1.88c0-16.26,0-32.52,0-48.78
		c0-0.56-0.04-1.11-0.06-1.67c-0.57-1.9-1.77-3.47-2.72-5.16c-3.21-5.66-6.42-11.32-9.69-16.94c-4.23-7.27-8.35-14.6-12.57-21.89
		c-3.51-6.07-6.97-12.18-10.45-18.28c-3.43-6.01-6.91-12-10.35-18.01c-3.11-5.45-6.22-10.9-9.34-16.34
		c-3.44-6.01-6.89-12.02-10.32-18.03c-1.82-3.19-3.68-6.35-5.48-9.55c-0.14-0.25-0.3-0.48-0.05-0.75c23.39,0,46.78,0.01,70.17-0.02
		c0.92,0,1.16,0.14,1.16,1.13c-0.03,58.43-0.03,116.86,0,175.3c0,1.04-0.26,1.2-1.23,1.2c-120.31-0.03-240.63-0.02-360.94-0.04
		C16.14,281.58,15.63,281.9,15.38,281.32z"/>
	<path class="st2" d="M15.38,191.56c0-13.14,0-26.29,0-39.43c1.35-3.07,3.18-5.89,4.85-8.78c7.29-12.62,14.57-25.25,21.86-37.88
		c0.33-0.57,0.63-1.14,1.26-1.44c7.55,0,15.1,0,22.65,0c0.13,0.82-0.43,1.39-0.79,2c-3.38,5.83-6.73,11.68-10.11,17.52
		c-3.58,6.2-7.17,12.4-10.74,18.6c-3.41,5.92-6.83,11.84-10.24,17.76c-3.18,5.52-6.36,11.04-9.56,16.55
		c-2.69,4.62-5.33,9.27-8.03,13.88C16.24,190.82,16.13,191.5,15.38,191.56z"/>
	<path class="st3" d="M43.34,104.03c-6.51,11.28-13.03,22.56-19.54,33.84c-2.47,4.27-4.92,8.55-7.4,12.81
		c-0.29,0.51-0.48,1.11-1.02,1.45c0-15.68,0.01-31.36-0.02-47.03c0-0.83,0.13-1.1,1.05-1.09C25.39,104.04,34.37,104.03,43.34,104.03
		z"/>
	<path class="st4" d="M307.33,104.03c2.21,3.92,4.4,7.85,6.64,11.76c21.27,37.13,42.54,74.26,63.82,111.39
		c0.32,0.56,0.74,1.09,0.51,1.81c-5.97-10.39-11.95-20.78-17.91-31.17c-17.66-30.8-35.32-61.61-52.97-92.42
		c-0.25-0.43-0.63-0.82-0.65-1.36C306.96,104.03,307.14,104.03,307.33,104.03z"/>
	<path class="st5" d="M15.38,191.56c2.05-2.87,3.62-6.02,5.38-9.07c14.95-25.86,29.87-51.73,44.8-77.6
		c0.16-0.28,0.29-0.58,0.44-0.86c0.19,0,0.37,0,0.56,0c-2.44,4.31-4.86,8.63-7.34,12.91c-14.28,24.76-28.57,49.51-42.86,74.25
		c-0.3,0.51-0.65,0.99-0.98,1.48C15.38,192.3,15.38,191.93,15.38,191.56z"/>
	<path class="st6" d="M187.35,142.62c5.49-6.86,13.09-9.26,21.21-10.65c5.4-0.93,10.85-0.97,16.27-0.67
		c6.81,0.37,13.54,1.42,20.22,2.8c5.32,1.1,10.6,2.4,15.79,3.93c2.75,0.81,5.66,1.42,8.14,3.1c0.76,0.51,1.18,1.18,1.58,1.89
		c9.08,15.98,18.65,31.67,27.98,47.5c8.17,13.87,16.39,27.72,24.58,41.58c1.25,2.12,0.95,3.84-1.04,5.21
		c-2.26,1.56-4.7,2.18-7.51,1.41c-13.76-3.79-27.65-7.07-41.69-9.65c-6.96-1.28-13.97-2.31-21-3.08
		c-5.21-0.57-10.45-0.88-15.71-0.95c-4.65-0.06-9.3-0.07-13.91,0.47c-7.22,0.85-14.35,2.15-20.43,6.59
		c-2.18,1.59-3.99,3.51-4.81,6.16c-0.17,0.56-0.49,0.59-0.93,0.59c-5.97,0-11.93,0-17.9,0c-0.42,0-0.79,0.02-0.98-0.54
		c-1.37-4.04-4.52-6.41-8.09-8.25c-4.89-2.52-10.2-3.59-15.6-4.35c-3.92-0.56-7.87-0.74-11.8-0.72c-5.19,0.02-10.4,0.13-15.59,0.69
		c-4,0.43-8.01,0.84-12,1.38c-8.62,1.17-17.16,2.78-25.67,4.6c-9.93,2.12-19.76,4.67-29.59,7.21c-3.03,0.78-5.68-0.33-7.8-2.57
		c-0.95-1.01-0.97-2.46-0.2-3.76c4.68-7.93,9.37-15.86,14.06-23.79c7.04-11.89,14.07-23.79,21.11-35.68
		c5.4-9.13,10.81-18.26,16.2-27.39c0.45-0.76,0.89-1.54,1.25-2.34c0.79-1.81,2.28-2.8,4.04-3.39c8.01-2.67,16.21-4.63,24.49-6.27
		c7.33-1.45,14.71-2.48,22.19-2.87c7.12-0.37,14.12-0.01,20.95,2.07c4.44,1.35,8.47,3.43,11.05,7.55
		C186.64,141.07,186.94,141.8,187.35,142.62z"/>
	<path class="st7" d="M98.64,145c-0.43,1.32-0.95,2.25-1.49,3.16c-14.69,24.75-29.39,49.5-44.09,74.24
		c-3.52,5.93-7.05,11.85-10.57,17.77c-1.21,2.04-1.01,3.41,0.9,4.83c2.48,1.84,5.15,2.42,8.27,1.54
		c12.28-3.44,24.68-6.38,37.18-8.89c10.73-2.16,21.51-3.96,32.42-4.89c10.18-0.87,20.37-1.26,30.48,0.75
		c5.21,1.04,10.21,2.62,14.1,6.54c1.62,1.63,2.78,3.55,2.94,5.88c0.08,1.11,0.54,1.22,1.47,1.22c10.58-0.03,21.16-0.02,31.74-0.02
		c0.33,0,0.65,0,0.98,0c2.34,0,2.31-0.01,2.9-2.32c0.82-3.22,2.99-5.41,5.69-7.15c4.46-2.86,9.48-4.03,14.63-4.75
		c8.06-1.12,16.15-0.94,24.25-0.36c9.34,0.67,18.59,2.02,27.8,3.69c13.88,2.51,27.6,5.74,41.23,9.36c1.44,0.38,2.87,0.78,4.32,1.15
		c3.04,0.78,5.6-0.27,7.82-2.24c1.43-1.27,1.51-2.46,0.52-4.13c-6.49-10.93-12.99-21.86-19.49-32.79
		c-11.82-19.9-23.65-39.79-35.47-59.69c-0.47-0.79-0.84-1.63-1.31-2.55c1.65,0.4,2.97,1.45,4.13,3.21
		c9.38,14.24,18.75,28.48,28.12,42.73c10.65,16.19,21.3,32.38,31.96,48.56c1.61,2.44,2.13,5.01,0.6,7.63
		c-1.58,2.72-3.91,4.32-7.21,4.18c-9.96-0.44-19.92-0.88-29.88-1.3c-8.38-0.35-16.76-0.66-25.14-1
		c-13.87-0.56-27.74-1.14-41.61-1.71c-8.28-0.34-16.57-0.67-24.85-1.06c-1.19-0.06-1.57,0.27-1.46,1.44
		c0.07,0.77,0.16,1.58-0.23,2.33c-0.55,1.06-1.45,1.31-2.56,1.31c-8.62-0.02-17.24-0.01-25.87-0.01c-5.13,0-10.25,0-15.38,0
		c-2.25,0-2.94-0.68-2.95-2.89c-0.01-2.19-0.01-2.21-2.25-2.12c-14.89,0.62-29.79,1.25-44.68,1.87c-10.15,0.42-20.3,0.82-30.44,1.24
		c-14.99,0.62-29.98,1.17-44.96,1.94c-4.76,0.25-8.66-3.87-8.5-7.55c0.07-1.59,0.62-2.99,1.48-4.3c13.63-20.7,27.26-41.4,40.88-62.1
		c6.4-9.73,12.81-19.45,19.2-29.19C95.29,146.99,96.66,145.88,98.64,145z"/>
</g>
</svg>
