<?xml version="1.0" encoding="utf-8"?>
<!-- Generator: Adobe Illustrator 23.0.4, SVG Export Plug-In . SVG Version: 6.00 Build 0)  -->
<svg version="1.1" id="Layer_1" xmlns="http://www.w3.org/2000/svg" xmlns:xlink="http://www.w3.org/1999/xlink" x="0px" y="0px"
	 viewBox="0 0 1000 1000" style="enable-background:new 0 0 1000 1000;" xml:space="preserve">
<style type="text/css">
	.st0{fill:#444545;}
	.st1{fill:#F18630;}
	.st2{fill:#243656;}
	.st3{fill:#62748E;}
	.st4{fill:#EFB86F;}
	.st5{fill:#919191;}
</style>
<g>
	<path class="st0" d="M126.97,490.92H83.34l-8.76,32.56H56.65L94.1,395.27h22.71l37.45,128.21h-18.72L126.97,490.92z M123.38,477.33
		l-18.33-67.92l-18.13,67.92H123.38z"/>
	<path class="st0" d="M243.69,434.35l-7.37,9.68c-7.77-5.21-14.74-8-23.11-8c-9.96,0-16.13,5.21-16.13,13.58
		c0,8.19,4.78,11.91,19.92,16.75c19.12,5.95,29.48,13.58,29.48,29.96c0,19.72-17.13,29.4-36.45,29.4c-15.14,0-26.49-5.4-34.66-12.84
		l9.36-9.3c6.97,5.58,15.34,9.3,24.9,9.3c11.35,0,18.72-5.77,18.72-15.63s-4.58-13.77-21.71-19.17
		c-19.72-6.33-27.29-14.89-27.29-27.91c0-15.26,13.74-26.8,33.46-26.8C225.57,423.37,235.33,427.28,243.69,434.35z"/>
	<path class="st0" d="M340.5,434.35l-7.37,9.68c-7.77-5.21-14.74-8-23.11-8c-9.96,0-16.13,5.21-16.13,13.58
		c0,8.19,4.78,11.91,19.92,16.75c19.12,5.95,29.48,13.58,29.48,29.96c0,19.72-17.13,29.4-36.45,29.4c-15.14,0-26.49-5.4-34.66-12.84
		l9.36-9.3c6.97,5.58,15.34,9.3,24.9,9.3c11.35,0,18.72-5.77,18.72-15.63s-4.58-13.77-21.71-19.17
		c-19.72-6.33-27.29-14.89-27.29-27.91c0-15.26,13.74-26.8,33.46-26.8C322.37,423.37,332.13,427.28,340.5,434.35z"/>
	<path class="st0" d="M450.25,480.13h-57.76c1.2,24.38,10.36,32.19,23.5,32.19c9.36,0,15.94-2.61,23.7-8.37l7.57,9.49
		c-8.76,7.63-19.12,12.28-32.07,12.28c-25.5,0-40.83-17.68-40.83-50.24c0-32.01,14.34-52.1,38.84-52.1
		c24.1,0,37.45,16.75,37.45,48.19C450.65,474.91,450.45,477.89,450.25,480.13z M433.72,466.73c0-21.03-6.77-30.52-20.32-30.52
		c-11.95,0-19.72,8.37-20.91,31.82h41.23V466.73z"/>
	<path class="st0" d="M606.61,453.33v70.15h-17.13v-68.11c0-14.89-4.78-19.35-11.55-19.35c-8.57,0-15.14,7.07-20.91,17.49v69.97
		h-17.13v-68.11c0-14.89-4.98-19.35-11.55-19.35c-8.57,0-15.34,7.07-20.91,17.49v69.97h-17.33v-98.06h15.14l1.2,14.33
		c6.17-9.49,14.54-16.37,26.29-16.37c10.96,0,18.92,6.51,22.31,17.49c6.57-10.05,14.94-17.49,27.29-17.49
		C597.05,423.37,606.61,434.72,606.61,453.33z"/>
	<path class="st0" d="M728.71,474.36c0,32.01-13.94,51.36-35.46,51.36c-9.76,0-18.13-4.84-24.1-12.65l-1.39,10.42h-15.54V386.15
		l17.53-1.86v53.22c6.17-8.75,14.54-14.14,25.5-14.14C715.77,423.37,728.71,440.12,728.71,474.36z M710.19,474.36
		c0-29.59-7.97-37.96-19.32-37.96c-9.56,0-16.33,7.26-21.11,15.26v48.19c4.58,7.26,11.55,12.84,19.72,12.84
		C701.63,512.69,710.19,502.64,710.19,474.36z"/>
	<path class="st0" d="M768.35,505.99V385.97l17.53-1.86v121.51c0,3.91,1.59,6.51,5.78,6.51c2.19,0,4.18-0.56,5.58-0.93l3.98,11.16
		c-3.39,1.86-7.97,3.35-12.95,3.35C776.32,525.71,768.35,518.27,768.35,505.99z"/>
</g>
<g>
	<path class="st0" d="M101.67,580.45l-2.56,3.09c-1.93-1.4-3.68-2.22-5.99-2.22c-4.37,0-7.05,3.5-7.05,12.01
		c0,8.57,2.75,11.6,6.99,11.6c2.37,0,4.06-0.82,6.05-2.22l2.56,3.15c-2.5,2.1-5.37,3.38-8.67,3.38c-7.92,0-12.79-5.54-12.79-15.8
		s4.93-16.26,12.73-16.26C96.3,577.18,98.99,578.11,101.67,580.45z"/>
	<path class="st0" d="M130.37,593.15c0,9.79-4.8,16.09-12.85,16.09c-8.11,0-12.79-6.06-12.79-16.03c0-10.2,4.74-16.03,12.85-16.03
		C125.63,577.18,130.37,582.72,130.37,593.15z M110.53,593.21c0,8.51,2.5,11.89,6.99,11.89c4.55,0,6.99-3.38,6.99-11.95
		c0-8.51-2.43-11.83-6.93-11.83C113.03,581.32,110.53,584.64,110.53,593.21z"/>
	<path class="st0" d="M160.26,586.57v21.97h-5.49v-21.27c0-4.66-1.44-6.06-3.99-6.06c-2.81,0-5.12,2.22-7.05,5.65v21.68h-5.49
		v-30.72h4.74l0.44,4.6c2.06-3.15,4.68-5.25,8.67-5.25C157.14,577.18,160.26,580.68,160.26,586.57z"/>
	<path class="st0" d="M191.76,586.57v21.97h-5.49v-21.27c0-4.66-1.44-6.06-3.99-6.06c-2.81,0-5.12,2.22-7.05,5.65v21.68h-5.49
		v-30.72h4.74l0.44,4.6c2.06-3.15,4.68-5.25,8.67-5.25C188.65,577.18,191.76,580.68,191.76,586.57z"/>
	<path class="st0" d="M223.15,594.96h-18.09c0.37,7.64,3.24,10.08,7.36,10.08c2.93,0,4.99-0.82,7.42-2.62l2.37,2.97
		c-2.75,2.39-5.99,3.85-10.05,3.85c-7.99,0-12.79-5.54-12.79-15.74c0-10.03,4.49-16.32,12.17-16.32c7.55,0,11.73,5.25,11.73,15.1
		C223.27,593.33,223.21,594.26,223.15,594.96z M217.97,590.76c0-6.59-2.12-9.56-6.36-9.56c-3.74,0-6.18,2.62-6.55,9.97h12.92V590.76
		z"/>
	<path class="st0" d="M250.41,580.45l-2.56,3.09c-1.93-1.4-3.68-2.22-5.99-2.22c-4.37,0-7.05,3.5-7.05,12.01
		c0,8.57,2.75,11.6,6.99,11.6c2.37,0,4.06-0.82,6.05-2.22l2.56,3.15c-2.5,2.1-5.37,3.38-8.67,3.38c-7.92,0-12.79-5.54-12.79-15.8
		s4.93-16.26,12.73-16.26C245.05,577.18,247.73,578.11,250.41,580.45z"/>
	<path class="st0" d="M271.38,607.14c-1.93,1.4-4.12,2.1-6.55,2.1c-5.12,0-7.92-2.97-7.92-7.75v-19.64h-4.74v-4.02h4.74v-6.94
		l5.49-0.64v7.58h6.68l-0.56,4.02h-6.11v19.58c0,2.27,0.87,3.56,3.31,3.56c1.25,0,2.18-0.35,3.56-1.05L271.38,607.14z"/>
	<path class="st0" d="M298.58,614.49h-5.05V561.5h5.05V614.49z"/>
	<path class="st0" d="M345.13,580.45l-2.56,3.09c-1.93-1.4-3.68-2.22-5.99-2.22c-4.37,0-7.05,3.5-7.05,12.01
		c0,8.57,2.75,11.6,6.99,11.6c2.37,0,4.06-0.82,6.05-2.22l2.56,3.15c-2.5,2.1-5.37,3.38-8.67,3.38c-7.92,0-12.79-5.54-12.79-15.8
		s4.93-16.26,12.73-16.26C339.76,577.18,342.44,578.11,345.13,580.45z"/>
	<path class="st0" d="M373.83,593.15c0,9.79-4.8,16.09-12.85,16.09c-8.11,0-12.79-6.06-12.79-16.03c0-10.2,4.74-16.03,12.85-16.03
		C369.09,577.18,373.83,582.72,373.83,593.15z M353.99,593.21c0,8.51,2.5,11.89,6.99,11.89c4.55,0,6.99-3.38,6.99-11.95
		c0-8.51-2.43-11.83-6.93-11.83C356.48,581.32,353.99,584.64,353.99,593.21z"/>
	<path class="st0" d="M381.38,603.06v-37.6l5.49-0.58v38.06c0,1.22,0.5,2.04,1.81,2.04c0.69,0,1.31-0.17,1.75-0.29l1.25,3.5
		c-1.06,0.58-2.5,1.05-4.06,1.05C383.87,609.24,381.38,606.91,381.38,603.06z"/>
	<path class="st0" d="M397.29,603.06v-37.6l5.49-0.58v38.06c0,1.22,0.5,2.04,1.81,2.04c0.69,0,1.31-0.17,1.75-0.29l1.25,3.5
		c-1.06,0.58-2.5,1.05-4.06,1.05C399.78,609.24,397.29,606.91,397.29,603.06z"/>
	<path class="st0" d="M435.41,605.68l-1.19,3.56c-3.06-0.47-4.93-1.57-5.74-4.49c-2,3.15-4.93,4.49-8.3,4.49
		c-5.74,0-9.23-3.73-9.23-9.27c0-6.53,4.62-10.08,13.1-10.08h3.62v-2.68c0-4.25-1.81-5.95-5.62-5.95c-2.43,0-4.8,0.58-7.74,1.63
		l-1.31-3.67c3.49-1.34,6.74-2.04,9.86-2.04c7.11,0,10.29,3.73,10.29,9.79v14.92C433.16,604.28,433.97,605.1,435.41,605.68z
		 M427.67,600.5v-7.17h-2.99c-5.43,0-7.99,2.1-7.99,6.41c0,3.79,1.68,5.65,4.62,5.65C424.18,605.39,426.24,603.76,427.67,600.5z"/>
	<path class="st0" d="M466.85,593.15c0,10.03-4.37,16.09-11.11,16.09c-3.06,0-5.68-1.52-7.55-3.96l-0.44,3.26h-4.87v-43.02
		l5.49-0.58v16.67c1.93-2.74,4.55-4.43,7.99-4.43C462.8,577.18,466.85,582.43,466.85,593.15z M461.05,593.15
		c0-9.27-2.5-11.89-6.05-11.89c-2.99,0-5.12,2.27-6.61,4.78v15.1c1.43,2.27,3.62,4.02,6.18,4.02
		C458.37,605.16,461.05,602.01,461.05,593.15z"/>
	<path class="st0" d="M498.55,593.15c0,9.79-4.8,16.09-12.85,16.09c-8.11,0-12.79-6.06-12.79-16.03c0-10.2,4.74-16.03,12.85-16.03
		C493.81,577.18,498.55,582.72,498.55,593.15z M478.71,593.21c0,8.51,2.5,11.89,6.99,11.89c4.55,0,6.99-3.38,6.99-11.95
		c0-8.51-2.43-11.83-6.93-11.83C481.2,581.32,478.71,584.64,478.71,593.21z"/>
	<path class="st0" d="M522.01,577.53l-0.94,4.95c-0.81-0.17-1.44-0.29-2.37-0.29c-3.49,0-5.62,2.74-6.8,8.34v18.01h-5.49v-30.72
		h4.74l0.5,5.83c1.56-4.37,4.18-6.47,7.67-6.47C520.32,577.18,521.2,577.3,522.01,577.53z"/>
	<path class="st0" d="M547.9,605.68l-1.19,3.56c-3.06-0.47-4.93-1.57-5.74-4.49c-2,3.15-4.93,4.49-8.3,4.49
		c-5.74,0-9.23-3.73-9.23-9.27c0-6.53,4.62-10.08,13.1-10.08h3.62v-2.68c0-4.25-1.81-5.95-5.62-5.95c-2.43,0-4.8,0.58-7.74,1.63
		l-1.31-3.67c3.49-1.34,6.74-2.04,9.86-2.04c7.11,0,10.29,3.73,10.29,9.79v14.92C545.66,604.28,546.47,605.1,547.9,605.68z
		 M540.16,600.5v-7.17h-2.99c-5.43,0-7.99,2.1-7.99,6.41c0,3.79,1.68,5.65,4.62,5.65C536.67,605.39,538.73,603.76,540.16,600.5z"/>
	<path class="st0" d="M570.36,607.14c-1.93,1.4-4.12,2.1-6.55,2.1c-5.12,0-7.92-2.97-7.92-7.75v-19.64h-4.74v-4.02h4.74v-6.94
		l5.49-0.64v7.58h6.68l-0.56,4.02h-6.11v19.58c0,2.27,0.87,3.56,3.31,3.56c1.25,0,2.18-0.35,3.56-1.05L570.36,607.14z"/>
	<path class="st0" d="M596.63,594.96h-18.09c0.37,7.64,3.24,10.08,7.36,10.08c2.93,0,4.99-0.82,7.42-2.62l2.37,2.97
		c-2.75,2.39-5.99,3.85-10.05,3.85c-7.99,0-12.79-5.54-12.79-15.74c0-10.03,4.49-16.32,12.17-16.32c7.55,0,11.73,5.25,11.73,15.1
		C596.76,593.33,596.69,594.26,596.63,594.96z M591.45,590.76c0-6.59-2.12-9.56-6.36-9.56c-3.74,0-6.18,2.62-6.55,9.97h12.92V590.76
		z"/>
	<path class="st0" d="M626.64,614.49h-5.05V561.5h5.05V614.49z"/>
	<path class="st0" d="M673.19,580.45l-2.56,3.09c-1.93-1.4-3.68-2.22-5.99-2.22c-4.37,0-7.05,3.5-7.05,12.01
		c0,8.57,2.75,11.6,6.99,11.6c2.37,0,4.06-0.82,6.05-2.22l2.56,3.15c-2.5,2.1-5.37,3.38-8.67,3.38c-7.92,0-12.79-5.54-12.79-15.8
		s4.93-16.26,12.73-16.26C667.82,577.18,670.5,578.11,673.19,580.45z"/>
	<path class="st0" d="M701.2,586.57v21.97h-5.49v-21.27c0-4.66-1.5-6.06-3.99-6.06c-2.81,0-5.12,2.22-7.05,5.65v21.68h-5.49v-43.02
		l5.49-0.52v17.14c2.06-3.03,4.55-4.95,8.36-4.95C698.08,577.18,701.2,580.68,701.2,586.57z"/>
	<path class="st0" d="M732.58,605.68l-1.19,3.56c-3.06-0.47-4.93-1.57-5.74-4.49c-2,3.15-4.93,4.49-8.3,4.49
		c-5.74,0-9.23-3.73-9.23-9.27c0-6.53,4.62-10.08,13.1-10.08h3.62v-2.68c0-4.25-1.81-5.95-5.62-5.95c-2.43,0-4.8,0.58-7.74,1.63
		l-1.31-3.67c3.49-1.34,6.74-2.04,9.86-2.04c7.11,0,10.29,3.73,10.29,9.79v14.92C730.34,604.28,731.15,605.1,732.58,605.68z
		 M724.85,600.5v-7.17h-2.99c-5.43,0-7.99,2.1-7.99,6.41c0,3.79,1.68,5.65,4.62,5.65C721.35,605.39,723.41,603.76,724.85,600.5z"/>
	<path class="st0" d="M762.1,586.57v21.97h-5.49v-21.27c0-4.66-1.44-6.06-3.99-6.06c-2.81,0-5.12,2.22-7.05,5.65v21.68h-5.49v-30.72
		h4.74l0.44,4.6c2.06-3.15,4.68-5.25,8.67-5.25C758.98,577.18,762.1,580.68,762.1,586.57z"/>
	<path class="st0" d="M794.85,579.16c-2.18,0.82-4.87,0.93-8.17,0.93c3.37,1.63,5.05,4.2,5.05,7.81c0,6.18-4.12,10.38-10.98,10.38
		c-1.25,0-2.37-0.17-3.49-0.58c-0.87,0.64-1.37,1.75-1.37,2.91c0,1.57,0.75,2.68,3.62,2.68h3.99c6.43,0,10.29,3.79,10.29,8.34
		c0,5.54-4.49,9.27-13.48,9.27c-9.42,0-12.35-3.5-12.35-9.27h4.87c0,3.61,1.43,5.25,7.55,5.25c5.93,0,7.99-1.87,7.99-4.9
		c0-3.03-2.06-4.55-5.93-4.55h-2.99c-6.24,0-8.55-2.51-8.55-5.71c0-1.98,1.31-3.85,3.31-5.25c-3.37-1.87-4.93-4.66-4.93-8.63
		c0-6.41,4.68-10.67,11.29-10.67c6.8,0.06,9.55-1.11,12.67-2.62L794.85,579.16z M774.7,587.85c0,4.14,2.06,6.99,5.8,6.99
		s5.74-1.98,5.74-7.05c0-4.55-1.81-6.94-5.74-6.94C776.7,580.85,774.7,583.18,774.7,587.85z"/>
	<path class="st0" d="M821.24,594.96h-18.09c0.37,7.64,3.24,10.08,7.36,10.08c2.93,0,4.99-0.82,7.42-2.62l2.37,2.97
		c-2.75,2.39-5.99,3.85-10.05,3.85c-7.99,0-12.79-5.54-12.79-15.74c0-10.03,4.49-16.32,12.17-16.32c7.55,0,11.73,5.25,11.73,15.1
		C821.37,593.33,821.31,594.26,821.24,594.96z M816.07,590.76c0-6.59-2.12-9.56-6.36-9.56c-3.74,0-6.18,2.62-6.55,9.97h12.92V590.76
		z"/>
</g>
<g>
	<g>
		<path class="st1" d="M937.77,437.22c8.57,8.57,13.6,19.75,14.35,31.75h23.18c-0.37-8.67-2.26-17.09-5.63-25.08
			c-3.65-8.63-8.88-16.38-15.53-23.03c-3.75-3.75-7.86-7.05-12.27-9.87l-11.59,20.07C932.94,432.84,935.45,434.9,937.77,437.22z"/>
		<path class="st2" d="M868,437.22c2.32-2.32,4.83-4.38,7.49-6.16l-11.59-20.07c-4.41,2.82-8.52,6.12-12.27,9.87
			c-6.65,6.65-11.88,14.4-15.53,23.03c-3.38,7.98-5.27,16.41-5.63,25.08h23.18C854.4,456.97,859.43,445.79,868,437.22z"/>
		<path class="st3" d="M937.77,506.98c-2.35,2.35-4.89,4.43-7.6,6.23l11.59,20.07c4.45-2.83,8.59-6.15,12.37-9.93
			c6.65-6.65,11.88-14.4,15.53-23.03c3.38-7.98,5.27-16.41,5.63-25.08h-23.18C951.37,487.23,946.34,498.41,937.77,506.98z"/>
		<path class="st4" d="M868,506.98c-8.57-8.57-13.6-19.75-14.35-31.75h-23.18c0.37,8.67,2.26,17.09,5.63,25.08
			c3.65,8.63,8.87,16.38,15.53,23.03c3.78,3.78,7.92,7.1,12.37,9.93l11.59-20.07C872.9,511.41,870.35,509.33,868,506.98z"/>
		<path class="st0" d="M902.89,521.43c-7.71,0-15.14-1.76-21.86-5.08l-11.58,20.06c1.7,0.89,3.44,1.71,5.22,2.46
			c8.94,3.78,18.44,5.7,28.21,5.7s19.27-1.92,28.21-5.7c1.78-0.75,3.52-1.58,5.22-2.46l-11.58-20.06
			C918.03,519.67,910.59,521.43,902.89,521.43z"/>
	</g>
	<rect x="891.18" y="420.16" class="st5" width="23.41" height="81.56"/>
</g>
<rect x="891.18" y="379.1" class="st5" width="23.41" height="23.21"/>
</svg>
